<svg width="70" height="70" viewBox="0 0 70 70" fill="none" xmlns="http://www.w3.org/2000/svg">
<circle cx="35" cy="35" r="35" fill="#FE6019"/>
<path d="M36.7622 36.5708H26.772L26.7183 31.3608H35.2852C36.7533 31.3608 37.9797 31.1549 38.9644 30.7432C39.9491 30.3314 40.6921 29.7316 41.1934 28.9438C41.7126 28.1561 41.9722 27.1982 41.9722 26.0703C41.9722 24.8171 41.7305 23.7965 41.2471 23.0088C40.7816 22.221 40.0475 21.6481 39.0449 21.29C38.0423 20.9141 36.7712 20.7261 35.2314 20.7261H29.1621V54H21.7769V14.8984H35.2314C37.4515 14.8984 39.4299 15.1133 41.1665 15.543C42.9211 15.9548 44.4071 16.5993 45.6245 17.4766C46.842 18.3538 47.764 19.4549 48.3906 20.7798C49.0352 22.1047 49.3574 23.6802 49.3574 25.5063C49.3574 27.1177 48.9814 28.6037 48.2295 29.9644C47.4954 31.3071 46.3586 32.3993 44.8188 33.2407C43.297 34.0822 41.3634 34.5656 39.0181 34.6909L36.7622 36.5708ZM36.4399 54H24.5967L27.6851 48.1992H36.4399C37.908 48.1992 39.1165 47.9575 40.0654 47.4741C41.0322 46.9907 41.7484 46.3283 42.2139 45.4868C42.6973 44.6274 42.939 43.6427 42.939 42.5327C42.939 41.3153 42.7241 40.259 42.2944 39.3638C41.8826 38.4686 41.2202 37.7793 40.3071 37.2959C39.4119 36.8125 38.2303 36.5708 36.7622 36.5708H29.0815L29.1353 31.3608H38.9106L40.6025 33.375C42.8584 33.3929 44.6935 33.8405 46.1079 34.7178C47.5402 35.5951 48.5965 36.723 49.2769 38.1016C49.9572 39.4801 50.2974 40.9661 50.2974 42.5596C50.2974 45.0661 49.7513 47.1698 48.6592 48.8706C47.585 50.5715 46.0094 51.8516 43.9326 52.7109C41.8737 53.5703 39.3761 54 36.4399 54Z" fill="white"/>
</svg>
