<svg width="150" height="150" viewBox="0 0 150 150" fill="none" xmlns="http://www.w3.org/2000/svg">
<rect width="150" height="150" rx="20" fill="url(#paint0_linear_0_1)"/>
<path d="M78.0981 77.2192H53.5767L53.4448 64.4312H74.4727C78.0762 64.4312 81.0864 63.9258 83.5034 62.915C85.9204 61.9043 87.7441 60.4321 88.9746 58.4985C90.249 56.5649 90.8862 54.2139 90.8862 51.4453C90.8862 48.3691 90.293 45.8643 89.1064 43.9307C87.9639 41.9971 86.1621 40.5908 83.7012 39.7119C81.2402 38.7891 78.1201 38.3276 74.3408 38.3276H59.4434V120H41.3159V24.0234H74.3408C79.79 24.0234 84.646 24.5508 88.9087 25.6055C93.2153 26.6162 96.8628 28.1982 99.8511 30.3516C102.839 32.5049 105.103 35.2075 106.641 38.4595C108.223 41.7114 109.014 45.5786 109.014 50.061C109.014 54.0161 108.091 57.6636 106.245 61.0034C104.443 64.2993 101.653 66.98 97.8735 69.0454C94.1382 71.1108 89.3921 72.2974 83.6353 72.605L78.0981 77.2192ZM77.3071 120H48.2373L55.8179 105.762H77.3071C80.9106 105.762 83.877 105.168 86.2061 103.982C88.5791 102.795 90.3369 101.169 91.4795 99.104C92.666 96.9946 93.2593 94.5776 93.2593 91.853C93.2593 88.8647 92.7319 86.272 91.6772 84.0747C90.6665 81.8774 89.0405 80.1855 86.7993 78.999C84.6021 77.8125 81.7017 77.2192 78.0981 77.2192H59.2456L59.3774 64.4312H83.3716L87.5244 69.375C93.0615 69.4189 97.5659 70.5176 101.038 72.6709C104.553 74.8242 107.146 77.5928 108.816 80.9766C110.486 84.3604 111.321 88.0078 111.321 91.9189C111.321 98.0713 109.98 103.235 107.3 107.41C104.663 111.584 100.796 114.727 95.6982 116.836C90.6445 118.945 84.5142 120 77.3071 120Z" fill="white"/>
<defs>
<linearGradient id="paint0_linear_0_1" x1="75" y1="0" x2="188" y2="150" gradientUnits="userSpaceOnUse">
<stop stop-color="#FE6019"/>
<stop offset="1" stop-color="#FF8A00" stop-opacity="0"/>
</linearGradient>
</defs>
</svg>
