<svg width="274" height="75" viewBox="0 0 274 75" fill="none" xmlns="http://www.w3.org/2000/svg">
<circle cx="37.5" cy="37.5" r="37.5" fill="#FE6019"/>
<line x1="88" y1="60" x2="273" y2="60" stroke="#FE6019" stroke-width="2"/>
<path d="M129.015 18C129.015 20.8333 128.015 23.2833 126.015 25.35C124.015 27.3833 121.099 28.85 117.265 29.75C119.332 30.3167 120.899 31.25 121.965 32.55C123.032 33.8167 123.565 35.2833 123.565 36.95C123.565 39.5833 122.732 41.8667 121.065 43.8C119.432 45.7333 117.032 47.2333 113.865 48.3C110.699 49.3333 106.882 49.85 102.415 49.85C100.749 49.85 99.4152 49.8 98.4152 49.7C98.3819 50.6333 97.9819 51.3333 97.2152 51.8C96.4486 52.2667 95.4652 52.5 94.2652 52.5C93.0652 52.5 92.2319 52.2333 91.7652 51.7C91.3319 51.1667 91.1486 50.3833 91.2152 49.35C91.5152 44.6833 92.0986 39.8 92.9652 34.7C93.8319 29.5667 94.9319 24.6167 96.2652 19.85C96.4986 19.0167 96.9652 18.4333 97.6652 18.1C98.3652 17.7667 99.2819 17.6 100.415 17.6C102.449 17.6 103.465 18.1667 103.465 19.3C103.465 19.7667 103.365 20.3 103.165 20.9C102.299 23.5 101.432 27.0333 100.565 31.5C99.6986 35.9333 99.0819 40.1667 98.7152 44.2C100.315 44.3333 101.615 44.4 102.615 44.4C107.282 44.4 110.699 43.7333 112.865 42.4C115.065 41.0333 116.165 39.3 116.165 37.2C116.165 35.7333 115.532 34.5 114.265 33.5C113.032 32.5 110.949 31.95 108.015 31.85C107.349 31.8167 106.882 31.65 106.615 31.35C106.349 31.05 106.215 30.5667 106.215 29.9C106.215 28.9333 106.415 28.15 106.815 27.55C107.215 26.95 107.949 26.6333 109.015 26.6C111.382 26.5333 113.515 26.1833 115.415 25.55C117.349 24.9167 118.865 24.0333 119.965 22.9C121.065 21.7333 121.615 20.3833 121.615 18.85C121.615 16.9167 120.665 15.4 118.765 14.3C116.865 13.1667 113.949 12.6 110.015 12.6C106.449 12.6 102.999 13.0667 99.6652 14C96.3319 14.9 93.4986 16.05 91.1652 17.45C90.0986 18.0833 89.1986 18.4 88.4652 18.4C87.8652 18.4 87.3986 18.2 87.0652 17.8C86.7652 17.3667 86.6152 16.8333 86.6152 16.2C86.6152 15.3667 86.7819 14.65 87.1152 14.05C87.4819 13.45 88.3319 12.7667 89.6652 12C92.4652 10.4 95.7486 9.15 99.5152 8.25C103.282 7.35 107.132 6.9 111.065 6.9C117.099 6.9 121.599 7.91666 124.565 9.95C127.532 11.9833 129.015 14.6667 129.015 18ZM149.915 38.85C150.348 38.85 150.682 39.05 150.915 39.45C151.182 39.85 151.315 40.4 151.315 41.1C151.315 42.4333 150.998 43.4667 150.365 44.2C149.132 45.7 147.382 47.0833 145.115 48.35C142.882 49.6167 140.482 50.25 137.915 50.25C134.415 50.25 131.698 49.3 129.765 47.4C127.832 45.5 126.865 42.9 126.865 39.6C126.865 37.3 127.348 35.1667 128.315 33.2C129.282 31.2 130.615 29.6167 132.315 28.45C134.048 27.2833 135.998 26.7 138.165 26.7C140.098 26.7 141.648 27.2833 142.815 28.45C143.982 29.5833 144.565 31.1333 144.565 33.1C144.565 35.4 143.732 37.3833 142.065 39.05C140.432 40.6833 137.648 41.9833 133.715 42.95C134.548 44.4833 136.132 45.25 138.465 45.25C139.965 45.25 141.665 44.7333 143.565 43.7C145.498 42.6333 147.165 41.25 148.565 39.55C148.965 39.0833 149.415 38.85 149.915 38.85ZM137.315 31.6C136.082 31.6 135.032 32.3167 134.165 33.75C133.332 35.1833 132.915 36.9167 132.915 38.95V39.05C134.882 38.5833 136.432 37.8833 137.565 36.95C138.698 36.0167 139.265 34.9333 139.265 33.7C139.265 33.0667 139.082 32.5667 138.715 32.2C138.382 31.8 137.915 31.6 137.315 31.6ZM185.194 38.85C185.627 38.85 185.96 39.05 186.194 39.45C186.46 39.85 186.594 40.4 186.594 41.1C186.594 42.4333 186.277 43.4667 185.644 44.2C184.21 45.9667 182.644 47.4167 180.944 48.55C179.244 49.6833 177.294 50.25 175.094 50.25C171.027 50.25 168.194 48.55 166.594 45.15C165.727 46.55 164.577 47.75 163.144 48.75C161.71 49.75 160.177 50.25 158.544 50.25C155.377 50.25 153.044 48.9667 151.544 46.4C150.077 43.8 149.344 40.3 149.344 35.9C149.344 34.2667 149.427 32.45 149.594 30.45H147.544C146.544 30.45 145.86 30.2667 145.494 29.9C145.16 29.5333 144.994 28.95 144.994 28.15C144.994 26.2833 145.744 25.35 147.244 25.35H150.294C150.927 21.8167 151.81 18.6167 152.944 15.75C154.077 12.8833 155.444 10.6 157.044 8.9C158.644 7.2 160.377 6.35 162.244 6.35C163.644 6.35 164.744 6.96667 165.544 8.2C166.344 9.43333 166.744 10.9833 166.744 12.85C166.744 17.55 164.927 21.7167 161.294 25.35H165.844C166.477 21.8167 167.36 18.6167 168.494 15.75C169.627 12.8833 170.994 10.6 172.594 8.9C174.194 7.2 175.927 6.35 177.794 6.35C179.194 6.35 180.294 6.96667 181.094 8.2C181.894 9.43333 182.294 10.9833 182.294 12.85C182.294 17.55 180.477 21.7167 176.844 25.35H181.394C181.927 25.35 182.31 25.4667 182.544 25.7C182.777 25.9333 182.894 26.3667 182.894 27C182.894 29.3 181.01 30.45 177.244 30.45H171.194C171.094 32.05 171.044 33.6833 171.044 35.35C171.044 38.8167 171.444 41.25 172.244 42.65C173.077 44.05 174.377 44.75 176.144 44.75C177.577 44.75 178.844 44.3167 179.944 43.45C181.044 42.5833 182.344 41.2833 183.844 39.55C184.244 39.0833 184.694 38.85 185.194 38.85ZM160.894 11.15C160.394 11.15 159.827 11.7833 159.194 13.05C158.594 14.2833 158.01 16.0167 157.444 18.25C156.91 20.45 156.46 22.9 156.094 25.6C158.06 23.9 159.527 22 160.494 19.9C161.494 17.7667 161.994 15.8333 161.994 14.1C161.994 12.1333 161.627 11.15 160.894 11.15ZM176.444 11.15C175.944 11.15 175.377 11.7833 174.744 13.05C174.144 14.2833 173.56 16.0167 172.994 18.25C172.46 20.45 172.01 22.9 171.644 25.6C173.61 23.9 175.077 22 176.044 19.9C177.044 17.7667 177.544 15.8333 177.544 14.1C177.544 12.1333 177.177 11.15 176.444 11.15ZM159.594 44.75C160.594 44.75 161.594 44.2833 162.594 43.35C163.594 42.4167 164.444 41.2667 165.144 39.9C164.977 38.8667 164.894 37.5333 164.894 35.9C164.894 34.2667 164.977 32.45 165.144 30.45H155.644C155.544 32.05 155.494 33.6833 155.494 35.35C155.494 38.7167 155.844 41.1333 156.544 42.6C157.277 44.0333 158.294 44.75 159.594 44.75ZM204.846 38.85C205.28 38.85 205.613 39.05 205.846 39.45C206.113 39.85 206.246 40.4 206.246 41.1C206.246 42.4333 205.93 43.4667 205.296 44.2C204.063 45.7 202.313 47.0833 200.046 48.35C197.813 49.6167 195.413 50.25 192.846 50.25C189.346 50.25 186.63 49.3 184.696 47.4C182.763 45.5 181.796 42.9 181.796 39.6C181.796 37.3 182.28 35.1667 183.246 33.2C184.213 31.2 185.546 29.6167 187.246 28.45C188.98 27.2833 190.93 26.7 193.096 26.7C195.03 26.7 196.58 27.2833 197.746 28.45C198.913 29.5833 199.496 31.1333 199.496 33.1C199.496 35.4 198.663 37.3833 196.996 39.05C195.363 40.6833 192.58 41.9833 188.646 42.95C189.48 44.4833 191.063 45.25 193.396 45.25C194.896 45.25 196.596 44.7333 198.496 43.7C200.43 42.6333 202.096 41.25 203.496 39.55C203.896 39.0833 204.346 38.85 204.846 38.85ZM192.246 31.6C191.013 31.6 189.963 32.3167 189.096 33.75C188.263 35.1833 187.846 36.9167 187.846 38.95V39.05C189.813 38.5833 191.363 37.8833 192.496 36.95C193.63 36.0167 194.196 34.9333 194.196 33.7C194.196 33.0667 194.013 32.5667 193.646 32.2C193.313 31.8 192.846 31.6 192.246 31.6ZM205.725 50.25C204.459 50.25 203.559 49.5833 203.025 48.25C202.525 46.9167 202.275 44.7833 202.275 41.85C202.275 37.5167 202.892 33.4 204.125 29.5C204.425 28.5333 204.909 27.8333 205.575 27.4C206.275 26.9333 207.242 26.7 208.475 26.7C209.142 26.7 209.609 26.7833 209.875 26.95C210.142 27.1167 210.275 27.4333 210.275 27.9C210.275 28.4333 210.025 29.6333 209.525 31.5C209.192 32.8333 208.925 34 208.725 35C208.525 36 208.359 37.2333 208.225 38.7C209.325 35.8333 210.559 33.5 211.925 31.7C213.292 29.9 214.625 28.6167 215.925 27.85C217.259 27.0833 218.475 26.7 219.575 26.7C221.742 26.7 222.825 27.7833 222.825 29.95C222.825 30.3833 222.675 31.4333 222.375 33.1C222.109 34.4333 221.975 35.2667 221.975 35.6C221.975 36.7667 222.392 37.35 223.225 37.35C224.159 37.35 225.359 36.6167 226.825 35.15C227.259 34.7167 227.709 34.5 228.175 34.5C228.609 34.5 228.942 34.7 229.175 35.1C229.442 35.4667 229.575 35.9667 229.575 36.6C229.575 37.8333 229.242 38.8 228.575 39.5C227.642 40.4667 226.542 41.3 225.275 42C224.042 42.6667 222.725 43 221.325 43C219.559 43 218.209 42.55 217.275 41.65C216.375 40.75 215.925 39.5333 215.925 38C215.925 37.5 215.975 37 216.075 36.5C216.142 35.8333 216.175 35.3833 216.175 35.15C216.175 34.6167 215.992 34.35 215.625 34.35C215.125 34.35 214.459 34.9167 213.625 36.05C212.825 37.15 212.025 38.6167 211.225 40.45C210.425 42.2833 209.775 44.2167 209.275 46.25C208.909 47.8167 208.475 48.8833 207.975 49.45C207.509 49.9833 206.759 50.25 205.725 50.25ZM231.479 23.4C230.079 23.4 229.029 23.0833 228.329 22.45C227.629 21.7833 227.279 20.8667 227.279 19.7C227.279 18.5333 227.729 17.5667 228.629 16.8C229.563 16 230.713 15.6 232.079 15.6C233.313 15.6 234.313 15.9 235.079 16.5C235.846 17.1 236.229 17.95 236.229 19.05C236.229 20.3833 235.796 21.45 234.929 22.25C234.063 23.0167 232.913 23.4 231.479 23.4ZM231.079 50.25C228.913 50.25 227.329 49.4833 226.329 47.95C225.363 46.4167 224.879 44.3833 224.879 41.85C224.879 40.35 225.063 38.4333 225.429 36.1C225.829 33.7333 226.329 31.5333 226.929 29.5C227.229 28.4333 227.629 27.7 228.129 27.3C228.629 26.9 229.429 26.7 230.529 26.7C232.229 26.7 233.079 27.2667 233.079 28.4C233.079 29.2333 232.763 31.1667 232.129 34.2C231.329 37.8667 230.929 40.35 230.929 41.65C230.929 42.65 231.063 43.4167 231.329 43.95C231.596 44.4833 232.046 44.75 232.679 44.75C233.279 44.75 234.029 44.3333 234.929 43.5C235.829 42.6667 237.029 41.35 238.529 39.55C238.929 39.0833 239.379 38.85 239.879 38.85C240.313 38.85 240.646 39.05 240.879 39.45C241.146 39.85 241.279 40.4 241.279 41.1C241.279 42.4333 240.963 43.4667 240.329 44.2C237.029 48.2333 233.946 50.25 231.079 50.25ZM256.696 36C257.629 36 258.096 36.7 258.096 38.1C258.096 40.7333 256.029 42.05 251.896 42.05C251.096 42.05 249.946 41.9 248.446 41.6C248.879 43.6667 249.229 45.9667 249.496 48.5C249.796 51 249.946 53.0667 249.946 54.7C249.946 58.3 249.362 61.05 248.196 62.95C247.029 64.85 245.496 65.8 243.596 65.8C241.196 65.8 239.479 64.1 238.446 60.7C237.446 57.3 236.946 52.1667 236.946 45.3C236.946 38.9 237.629 32.4167 238.996 25.85C240.396 19.25 242.296 13.8 244.696 9.5C247.129 5.16666 249.796 3 252.696 3C254.262 3 255.479 3.7 256.346 5.1C257.246 6.5 257.696 8.38333 257.696 10.75C257.696 18.5833 253.012 27.1167 243.646 36.35C243.312 39.6167 243.146 42.4833 243.146 44.95C243.146 48.3833 243.262 51.9 243.496 55.5C243.729 59.1333 244.112 60.95 244.646 60.95C245.646 60.95 246.146 59.2167 246.146 55.75C246.146 53.15 245.962 50.6333 245.596 48.2C245.262 45.7667 244.796 43.2 244.196 40.5C244.162 40.0667 244.296 39.5167 244.596 38.85C244.929 38.1833 245.329 37.6 245.796 37.1C246.262 36.6 246.679 36.35 247.046 36.35C247.712 36.35 248.512 36.3833 249.446 36.45C249.746 36.4833 250.096 36.5 250.496 36.5C251.829 36.5 253.312 36.3833 254.946 36.15C255.212 36.1167 255.496 36.0833 255.796 36.05C256.096 36.0167 256.396 36 256.696 36ZM251.646 7.95C251.046 7.95 250.296 8.96667 249.396 11C248.529 13.0333 247.662 15.7333 246.796 19.1C245.929 22.4333 245.179 25.9667 244.546 29.7C247.212 26.6667 249.262 23.5167 250.696 20.25C252.129 16.95 252.862 13.8667 252.896 11C252.896 8.96667 252.479 7.95 251.646 7.95ZM271.824 26.7C272.59 26.7 273.124 26.8 273.424 27C273.724 27.2 273.874 27.5333 273.874 28C273.874 28.8 273.44 31.65 272.574 36.55C271.807 41.25 271.357 44.0333 271.224 44.9C269.99 53.4667 268.29 60.25 266.124 65.25C263.957 70.25 261.074 72.75 257.474 72.75C255.774 72.75 254.39 72.2167 253.324 71.15C252.257 70.1167 251.724 68.75 251.724 67.05C251.724 65.4833 252.074 63.8833 252.774 62.25C253.507 60.6167 254.84 58.7333 256.774 56.6C258.74 54.5 261.507 52.0833 265.074 49.35L265.224 48.2C265.457 46.9667 265.724 45.2 266.024 42.9C265.357 45.3 264.424 47.1333 263.224 48.4C262.024 49.6333 260.757 50.25 259.424 50.25C257.924 50.25 256.69 49.5667 255.724 48.2C254.79 46.8 254.324 45.0667 254.324 43C254.324 40.5 254.49 38.2167 254.824 36.15C255.157 34.05 255.707 31.8333 256.474 29.5C256.807 28.5 257.274 27.7833 257.874 27.35C258.474 26.9167 259.424 26.7 260.724 26.7C261.457 26.7 261.957 26.8167 262.224 27.05C262.524 27.2833 262.674 27.6333 262.674 28.1C262.674 28.3667 262.49 29.2667 262.124 30.8C261.79 32.0333 261.524 33.15 261.324 34.15C261.057 35.5167 260.824 36.8333 260.624 38.1C260.424 39.3333 260.324 40.35 260.324 41.15C260.324 42.4167 260.674 43.05 261.374 43.05C261.874 43.05 262.49 42.55 263.224 41.55C263.99 40.55 264.79 39.0333 265.624 37C266.49 34.9667 267.324 32.4667 268.124 29.5C268.39 28.5 268.79 27.7833 269.324 27.35C269.89 26.9167 270.724 26.7 271.824 26.7ZM258.024 67.9C258.857 67.9 259.79 66.9333 260.824 65C261.857 63.0667 262.89 59.85 263.924 55.35C261.357 57.5167 259.49 59.4833 258.324 61.25C257.19 63.05 256.624 64.6167 256.624 65.95C256.624 66.5167 256.724 66.9833 256.924 67.35C257.157 67.7167 257.524 67.9 258.024 67.9Z" fill="black"/>
<path d="M64.7655 24.6C64.7655 28 63.5655 30.94 61.1655 33.42C58.7655 35.86 55.2655 37.62 50.6655 38.7C53.1455 39.38 55.0256 40.5 56.3056 42.06C57.5856 43.58 58.2256 45.34 58.2256 47.34C58.2256 50.5 57.2256 53.24 55.2255 55.56C53.2655 57.88 50.3855 59.68 46.5855 60.96C42.7855 62.2 38.2055 62.82 32.8455 62.82C30.8455 62.82 29.2455 62.76 28.0455 62.64C28.0055 63.76 27.5255 64.6 26.6055 65.16C25.6855 65.72 24.5055 66 23.0655 66C21.6255 66 20.6255 65.68 20.0655 65.04C19.5455 64.4 19.3255 63.46 19.4055 62.22C19.7655 56.62 20.4655 50.76 21.5055 44.64C22.5455 38.48 23.8655 32.54 25.4655 26.82C25.7455 25.82 26.3055 25.12 27.1455 24.72C27.9855 24.32 29.0855 24.12 30.4455 24.12C32.8855 24.12 34.1055 24.8 34.1055 26.16C34.1055 26.72 33.9855 27.36 33.7455 28.08C32.7055 31.2 31.6655 35.44 30.6255 40.8C29.5855 46.12 28.8455 51.2 28.4055 56.04C30.3255 56.2 31.8855 56.28 33.0855 56.28C38.6855 56.28 42.7855 55.48 45.3855 53.88C48.0255 52.24 49.3455 50.16 49.3455 47.64C49.3455 45.88 48.5855 44.4 47.0655 43.2C45.5855 42 43.0855 41.34 39.5655 41.22C38.7655 41.18 38.2055 40.98 37.8855 40.62C37.5655 40.26 37.4055 39.68 37.4055 38.88C37.4055 37.72 37.6455 36.78 38.1255 36.06C38.6055 35.34 39.4855 34.96 40.7655 34.92C43.6055 34.84 46.1655 34.42 48.4455 33.66C50.7655 32.9 52.5855 31.84 53.9055 30.48C55.2255 29.08 55.8855 27.46 55.8855 25.62C55.8855 23.3 54.7455 21.48 52.4655 20.16C50.1855 18.8 46.6855 18.12 41.9655 18.12C37.6855 18.12 33.5455 18.68 29.5455 19.8C25.5455 20.88 22.1455 22.26 19.3455 23.94C18.0655 24.7 16.9855 25.08 16.1055 25.08C15.3855 25.08 14.8255 24.84 14.4255 24.36C14.0655 23.84 13.8855 23.2 13.8855 22.44C13.8855 21.44 14.0855 20.58 14.4855 19.86C14.9255 19.14 15.9455 18.32 17.5455 17.4C20.9055 15.48 24.8455 13.98 29.3655 12.9C33.8855 11.82 38.5055 11.28 43.2255 11.28C50.4655 11.28 55.8656 12.5 59.4255 14.94C62.9855 17.38 64.7655 20.6 64.7655 24.6Z" fill="white"/>
<circle cx="231" cy="19" r="6" fill="#FE6019"/>
</svg>
