<svg version="1.1" viewBox="0.0 0.0 285.0 75.0" fill="none" stroke="none" stroke-linecap="square" stroke-miterlimit="10" xmlns:xlink="http://www.w3.org/1999/xlink" xmlns="http://www.w3.org/2000/svg"><clipPath id="p.0"><path d="m0 0l285.0 0l0 75.0l-285.0 0l0 -75.0z" clip-rule="nonzero"/></clipPath><g clip-path="url(#p.0)"><path fill="#000000" fill-opacity="0.0" d="m0 0l285.0 0l0 75.0l-285.0 0z" fill-rule="evenodd"/><path fill="#000000" fill-opacity="0.0" d="m61.62992 1.515748l223.37009 0l0 71.968506l-223.37009 0z" fill-rule="evenodd"/><path fill="#000000" d="m82.40635 55.64l0 -36.015625l12.609375 0q6.5625 0 9.9375 2.515625q3.390625 2.5 3.390625 7.359375q0 2.640623 -1.359375 4.656248q-1.359375 2.015625 -3.78125 2.953125q2.765625 0.703125 4.359375 2.8125q1.609375 2.09375 1.609375 5.125q0 5.203125 -3.328125 7.875q-3.3125 2.671875 -9.4375 2.71875l-14.0 0zm7.421875 -15.6875l0 9.71875l6.359375 0q2.609375 0 4.078125 -1.234375q1.484375 -1.25 1.484375 -3.453125q0 -4.953125 -5.125 -5.03125l-6.796875 0zm0 -5.234375l5.484375 0q5.609375 -0.109375 5.609375 -4.484373q0 -2.4375 -1.421875 -3.515625q-1.421875 -1.078125 -4.484375 -1.078125l-5.1875 0l0 9.078123zm36.749863 21.421875q-5.890625 0 -9.59375 -3.609375q-3.6875 -3.625 -3.6875 -9.625l0 -0.703125q0 -4.03125 1.546875 -7.203125q1.5625 -3.171873 4.421875 -4.890623q2.859375 -1.71875 6.515625 -1.71875q5.5000076 0 8.640633 3.46875q3.15625 3.453123 3.15625 9.812498l0 2.90625l-17.031258 0q0.34375 2.625 2.078125 4.21875q1.75 1.578125 4.421875 1.578125q4.1250076 0 6.4531326 -3.0l3.515625 3.9375q-1.609375 2.28125 -4.359375 3.5625q-2.734375 1.265625 -6.0781326 1.265625zm-0.8125 -21.96875q-2.125 0 -3.453125 1.4375q-1.328125 1.4375 -1.6875 4.109375l9.937508 0l0 -0.578125q-0.046875 -2.375 -1.296875 -3.671875q-1.234375 -1.296875 -3.5000076 -1.296875zm24.42797 -11.874998l0 6.578125l4.578125 0l0 5.249998l-4.578125 0l0 13.359375q0 1.484375 0.5625 2.125q0.578125 0.640625 2.1875 0.640625q1.1875 0 2.109375 -0.171875l0 5.421875q-2.109375 0.640625 -4.328125 0.640625q-7.53125 0 -7.671875 -7.59375l0 -14.421875l-3.90625 0l0 -5.249998l3.90625 0l0 -6.578125l7.140625 0zm17.116272 0l0 6.578125l4.578125 0l0 5.249998l-4.578125 0l0 13.359375q0 1.484375 0.5625 2.125q0.578125 0.640625 2.1875 0.640625q1.1875 0 2.109375 -0.171875l0 5.421875q-2.109375 0.640625 -4.328125 0.640625q-7.53125 0 -7.671875 -7.59375l0 -14.421875l-3.90625 0l0 -5.249998l3.90625 0l0 -6.578125l7.140625 0zm20.881897 33.84375q-5.890625 0 -9.59375 -3.609375q-3.6875 -3.625 -3.6875 -9.625l0 -0.703125q0 -4.03125 1.546875 -7.203125q1.5625 -3.171873 4.421875 -4.890623q2.859375 -1.71875 6.515625 -1.71875q5.5 0 8.640625 3.46875q3.15625 3.453123 3.15625 9.812498l0 2.90625l-17.03125 0q0.34375 2.625 2.078125 4.21875q1.75 1.578125 4.421875 1.578125q4.125 0 6.453125 -3.0l3.515625 3.9375q-1.609375 2.28125 -4.359375 3.5625q-2.734375 1.265625 -6.078125 1.265625zm-0.8125 -21.96875q-2.125 0 -3.453125 1.4375q-1.328125 1.4375 -1.6875 4.109375l9.9375 0l0 -0.578125q-0.046875 -2.375 -1.296875 -3.671875q-1.234375 -1.296875 -3.5 -1.296875zm30.912338 1.40625q-1.453125 -0.1875 -2.5625 -0.1875q-4.0625 0 -5.328125 2.734375l0 17.515625l-7.140625 0l0 -26.765623l6.75 0l0.203125 3.187498q2.140625 -3.671873 5.953125 -3.671873q1.1875 0 2.234375 0.3125l-0.109375 6.874998zm10.992294 20.0625l-7.1875 0l0 -26.765623l7.1875 0l0 26.765623zm-7.59375 -33.6875q0 -1.609375 1.0625 -2.640625q1.078125 -1.046875 2.9375 -1.046875q1.828125 0 2.90625 1.046875q1.09375 1.03125 1.09375 2.640625q0 1.625 -1.09375 2.671875q-1.09375 1.03125 -2.90625 1.03125q-1.8125 0 -2.90625 -1.03125q-1.09375 -1.046875 -1.09375 -2.671875zm15.430832 33.6875l0 -21.515625l-3.984375 0l0 -5.249998l3.984375 0l0 -2.265625q0 -4.515625 2.578125 -7.0q2.59375 -2.484375 7.234375 -2.484375q1.484375 0 3.640625 0.5l-0.078125 5.546875q-0.890625 -0.234375 -2.171875 -0.234375q-4.03125 0 -4.03125 3.78125l0 2.15625l5.3125 0l0 5.249998l-5.3125 0l0 21.515625l-7.171875 0zm26.18637 -10.109375l4.953125 -16.656248l7.671875 0l-10.765625 30.921873l-0.59375 1.40625q-2.40625 5.25 -7.921875 5.25q-1.546875 0 -3.15625 -0.46875l0 -5.421875l1.078125 0.03125q2.03125 0 3.03125 -0.625q1.0 -0.625 1.578125 -2.046875l0.84375 -2.203125l-9.375 -26.843748l7.6875 0l4.96875 16.656248z" fill-rule="nonzero"/><defs><linearGradient id="p.1" gradientUnits="userSpaceOnUse" gradientTransform="matrix(8.485296704348222 0.0 0.0 8.485296704348222 0.0 0.0)" spreadMethod="pad" x1="0.17785903365373035" y1="0.17690037578034876" x2="0.17782831687953696" y2="8.662197080072975"><stop offset="0.0" stop-color="#fe6019"/><stop offset="0.5" stop-color="#ff8a00"/><stop offset="0.75" stop-color="#ffac4a"/><stop offset="0.88" stop-color="#ffac4a"/><stop offset="0.99999994" stop-color="#fcbf77"/><stop offset="1.0" stop-color="#737373"/></linearGradient></defs><path fill="url(#p.1)" d="m1.5091866 13.806113l0 0c0 -6.795754 5.5090466 -12.3048 12.3048 -12.3048l47.3904 0l0 0c3.2634315 0 6.3932076 1.296395 8.7008095 3.6039925c2.3075943 2.3075976 3.6039886 5.4373717 3.6039886 8.700808l0 47.3904c0 6.7957497 -5.5090485 12.304798 -12.304798 12.304798l-47.3904 0c-6.7957535 0 -12.3048 -5.5090485 -12.3048 -12.304798z" fill-rule="evenodd"/><path fill="#ffffff" d="m19.676195 63.901318l0 -52.125l17.875002 0q8.84375 0 13.453125 3.546875q4.625 3.531251 4.625 10.546876q0 3.59375 -1.9375 6.453125q-1.9375 2.859375 -5.65625 4.4375q4.21875 1.140625 6.53125 4.3125q2.3125 3.171875 2.3125 7.609375q0 7.34375 -4.71875 11.28125q-4.703125 3.9375 -13.46875 3.9375l-19.015627 0zm9.0625 -23.53125l0 16.296875l10.062502 0q4.25 0 6.65625 -2.109375q2.40625 -2.109375 2.40625 -5.875q0 -8.125 -8.3125 -8.3125l-10.812502 0zm0 -6.65625l8.875002 0q4.234375 0 6.609375 -1.90625q2.375 -1.921875 2.375 -5.421875q0 -3.875 -2.203125 -5.59375q-2.203125 -1.71875 -6.84375 -1.71875l-8.812502 0l0 14.640625z" fill-rule="nonzero"/><path fill="#000000" fill-opacity="0.0" d="m81.42782 65.11024l167.46457 -1.1968498" fill-rule="evenodd"/><path stroke="#fe6019" stroke-width="4.0" stroke-linejoin="round" stroke-linecap="butt" d="m81.42782 65.11024l167.46457 -1.1968498" fill-rule="evenodd"/><path fill="#fe6019" d="m218.67192 19.955381l0 0c0 -3.44417 2.7920532 -6.2362213 6.2362213 -6.2362213l0 0c1.6539459 0 3.2401428 0.6570282 4.409668 1.8265467c1.1695251 1.1695185 1.8265533 2.755725 1.8265533 4.4096746l0 0c0 3.444168 -2.7920532 6.2362194 -6.2362213 6.2362194l0 0c-3.444168 0 -6.2362213 -2.7920513 -6.2362213 -6.2362194z" fill-rule="evenodd"/></g></svg>