<svg width="263" height="73" viewBox="0 0 263 73" fill="none" xmlns="http://www.w3.org/2000/svg">
<line x1="77" y1="60" x2="262" y2="60" stroke="#FE6019" stroke-width="2"/>
<path d="M118.015 18C118.015 20.8333 117.015 23.2833 115.015 25.35C113.015 27.3833 110.099 28.85 106.265 29.75C108.332 30.3167 109.899 31.25 110.965 32.55C112.032 33.8167 112.565 35.2833 112.565 36.95C112.565 39.5833 111.732 41.8667 110.065 43.8C108.432 45.7333 106.032 47.2333 102.865 48.3C99.6986 49.3333 95.8819 49.85 91.4152 49.85C89.7486 49.85 88.4152 49.8 87.4152 49.7C87.3819 50.6333 86.9819 51.3333 86.2152 51.8C85.4486 52.2667 84.4652 52.5 83.2652 52.5C82.0652 52.5 81.2319 52.2333 80.7652 51.7C80.3319 51.1667 80.1486 50.3833 80.2152 49.35C80.5152 44.6833 81.0986 39.8 81.9652 34.7C82.8319 29.5667 83.9319 24.6167 85.2652 19.85C85.4986 19.0167 85.9652 18.4333 86.6652 18.1C87.3652 17.7667 88.2819 17.6 89.4152 17.6C91.4486 17.6 92.4652 18.1667 92.4652 19.3C92.4652 19.7667 92.3652 20.3 92.1652 20.9C91.2986 23.5 90.4319 27.0333 89.5652 31.5C88.6986 35.9333 88.0819 40.1667 87.7152 44.2C89.3152 44.3333 90.6152 44.4 91.6152 44.4C96.2819 44.4 99.6986 43.7333 101.865 42.4C104.065 41.0333 105.165 39.3 105.165 37.2C105.165 35.7333 104.532 34.5 103.265 33.5C102.032 32.5 99.9486 31.95 97.0152 31.85C96.3486 31.8167 95.8819 31.65 95.6152 31.35C95.3486 31.05 95.2152 30.5667 95.2152 29.9C95.2152 28.9333 95.4152 28.15 95.8152 27.55C96.2152 26.95 96.9486 26.6333 98.0152 26.6C100.382 26.5333 102.515 26.1833 104.415 25.55C106.349 24.9167 107.865 24.0333 108.965 22.9C110.065 21.7333 110.615 20.3833 110.615 18.85C110.615 16.9167 109.665 15.4 107.765 14.3C105.865 13.1667 102.949 12.6 99.0152 12.6C95.4486 12.6 91.9986 13.0667 88.6652 14C85.3319 14.9 82.4986 16.05 80.1652 17.45C79.0986 18.0833 78.1986 18.4 77.4652 18.4C76.8652 18.4 76.3986 18.2 76.0652 17.8C75.7652 17.3667 75.6152 16.8333 75.6152 16.2C75.6152 15.3667 75.7819 14.65 76.1152 14.05C76.4819 13.45 77.3319 12.7667 78.6652 12C81.4652 10.4 84.7486 9.15 88.5152 8.25C92.2819 7.35 96.1319 6.9 100.065 6.9C106.099 6.9 110.599 7.91666 113.565 9.95C116.532 11.9833 118.015 14.6667 118.015 18ZM138.915 38.85C139.348 38.85 139.682 39.05 139.915 39.45C140.182 39.85 140.315 40.4 140.315 41.1C140.315 42.4333 139.998 43.4667 139.365 44.2C138.132 45.7 136.382 47.0833 134.115 48.35C131.882 49.6167 129.482 50.25 126.915 50.25C123.415 50.25 120.698 49.3 118.765 47.4C116.832 45.5 115.865 42.9 115.865 39.6C115.865 37.3 116.348 35.1667 117.315 33.2C118.282 31.2 119.615 29.6167 121.315 28.45C123.048 27.2833 124.998 26.7 127.165 26.7C129.098 26.7 130.648 27.2833 131.815 28.45C132.982 29.5833 133.565 31.1333 133.565 33.1C133.565 35.4 132.732 37.3833 131.065 39.05C129.432 40.6833 126.648 41.9833 122.715 42.95C123.548 44.4833 125.132 45.25 127.465 45.25C128.965 45.25 130.665 44.7333 132.565 43.7C134.498 42.6333 136.165 41.25 137.565 39.55C137.965 39.0833 138.415 38.85 138.915 38.85ZM126.315 31.6C125.082 31.6 124.032 32.3167 123.165 33.75C122.332 35.1833 121.915 36.9167 121.915 38.95V39.05C123.882 38.5833 125.432 37.8833 126.565 36.95C127.698 36.0167 128.265 34.9333 128.265 33.7C128.265 33.0667 128.082 32.5667 127.715 32.2C127.382 31.8 126.915 31.6 126.315 31.6ZM174.194 38.85C174.627 38.85 174.96 39.05 175.194 39.45C175.46 39.85 175.594 40.4 175.594 41.1C175.594 42.4333 175.277 43.4667 174.644 44.2C173.21 45.9667 171.644 47.4167 169.944 48.55C168.244 49.6833 166.294 50.25 164.094 50.25C160.027 50.25 157.194 48.55 155.594 45.15C154.727 46.55 153.577 47.75 152.144 48.75C150.71 49.75 149.177 50.25 147.544 50.25C144.377 50.25 142.044 48.9667 140.544 46.4C139.077 43.8 138.344 40.3 138.344 35.9C138.344 34.2667 138.427 32.45 138.594 30.45H136.544C135.544 30.45 134.86 30.2667 134.494 29.9C134.16 29.5333 133.994 28.95 133.994 28.15C133.994 26.2833 134.744 25.35 136.244 25.35H139.294C139.927 21.8167 140.81 18.6167 141.944 15.75C143.077 12.8833 144.444 10.6 146.044 8.9C147.644 7.2 149.377 6.35 151.244 6.35C152.644 6.35 153.744 6.96667 154.544 8.2C155.344 9.43333 155.744 10.9833 155.744 12.85C155.744 17.55 153.927 21.7167 150.294 25.35H154.844C155.477 21.8167 156.36 18.6167 157.494 15.75C158.627 12.8833 159.994 10.6 161.594 8.9C163.194 7.2 164.927 6.35 166.794 6.35C168.194 6.35 169.294 6.96667 170.094 8.2C170.894 9.43333 171.294 10.9833 171.294 12.85C171.294 17.55 169.477 21.7167 165.844 25.35H170.394C170.927 25.35 171.31 25.4667 171.544 25.7C171.777 25.9333 171.894 26.3667 171.894 27C171.894 29.3 170.01 30.45 166.244 30.45H160.194C160.094 32.05 160.044 33.6833 160.044 35.35C160.044 38.8167 160.444 41.25 161.244 42.65C162.077 44.05 163.377 44.75 165.144 44.75C166.577 44.75 167.844 44.3167 168.944 43.45C170.044 42.5833 171.344 41.2833 172.844 39.55C173.244 39.0833 173.694 38.85 174.194 38.85ZM149.894 11.15C149.394 11.15 148.827 11.7833 148.194 13.05C147.594 14.2833 147.01 16.0167 146.444 18.25C145.91 20.45 145.46 22.9 145.094 25.6C147.06 23.9 148.527 22 149.494 19.9C150.494 17.7667 150.994 15.8333 150.994 14.1C150.994 12.1333 150.627 11.15 149.894 11.15ZM165.444 11.15C164.944 11.15 164.377 11.7833 163.744 13.05C163.144 14.2833 162.56 16.0167 161.994 18.25C161.46 20.45 161.01 22.9 160.644 25.6C162.61 23.9 164.077 22 165.044 19.9C166.044 17.7667 166.544 15.8333 166.544 14.1C166.544 12.1333 166.177 11.15 165.444 11.15ZM148.594 44.75C149.594 44.75 150.594 44.2833 151.594 43.35C152.594 42.4167 153.444 41.2667 154.144 39.9C153.977 38.8667 153.894 37.5333 153.894 35.9C153.894 34.2667 153.977 32.45 154.144 30.45H144.644C144.544 32.05 144.494 33.6833 144.494 35.35C144.494 38.7167 144.844 41.1333 145.544 42.6C146.277 44.0333 147.294 44.75 148.594 44.75ZM193.846 38.85C194.28 38.85 194.613 39.05 194.846 39.45C195.113 39.85 195.246 40.4 195.246 41.1C195.246 42.4333 194.93 43.4667 194.296 44.2C193.063 45.7 191.313 47.0833 189.046 48.35C186.813 49.6167 184.413 50.25 181.846 50.25C178.346 50.25 175.63 49.3 173.696 47.4C171.763 45.5 170.796 42.9 170.796 39.6C170.796 37.3 171.28 35.1667 172.246 33.2C173.213 31.2 174.546 29.6167 176.246 28.45C177.98 27.2833 179.93 26.7 182.096 26.7C184.03 26.7 185.58 27.2833 186.746 28.45C187.913 29.5833 188.496 31.1333 188.496 33.1C188.496 35.4 187.663 37.3833 185.996 39.05C184.363 40.6833 181.58 41.9833 177.646 42.95C178.48 44.4833 180.063 45.25 182.396 45.25C183.896 45.25 185.596 44.7333 187.496 43.7C189.43 42.6333 191.096 41.25 192.496 39.55C192.896 39.0833 193.346 38.85 193.846 38.85ZM181.246 31.6C180.013 31.6 178.963 32.3167 178.096 33.75C177.263 35.1833 176.846 36.9167 176.846 38.95V39.05C178.813 38.5833 180.363 37.8833 181.496 36.95C182.63 36.0167 183.196 34.9333 183.196 33.7C183.196 33.0667 183.013 32.5667 182.646 32.2C182.313 31.8 181.846 31.6 181.246 31.6ZM194.725 50.25C193.459 50.25 192.559 49.5833 192.025 48.25C191.525 46.9167 191.275 44.7833 191.275 41.85C191.275 37.5167 191.892 33.4 193.125 29.5C193.425 28.5333 193.909 27.8333 194.575 27.4C195.275 26.9333 196.242 26.7 197.475 26.7C198.142 26.7 198.609 26.7833 198.875 26.95C199.142 27.1167 199.275 27.4333 199.275 27.9C199.275 28.4333 199.025 29.6333 198.525 31.5C198.192 32.8333 197.925 34 197.725 35C197.525 36 197.359 37.2333 197.225 38.7C198.325 35.8333 199.559 33.5 200.925 31.7C202.292 29.9 203.625 28.6167 204.925 27.85C206.259 27.0833 207.475 26.7 208.575 26.7C210.742 26.7 211.825 27.7833 211.825 29.95C211.825 30.3833 211.675 31.4333 211.375 33.1C211.109 34.4333 210.975 35.2667 210.975 35.6C210.975 36.7667 211.392 37.35 212.225 37.35C213.159 37.35 214.359 36.6167 215.825 35.15C216.259 34.7167 216.709 34.5 217.175 34.5C217.609 34.5 217.942 34.7 218.175 35.1C218.442 35.4667 218.575 35.9667 218.575 36.6C218.575 37.8333 218.242 38.8 217.575 39.5C216.642 40.4667 215.542 41.3 214.275 42C213.042 42.6667 211.725 43 210.325 43C208.559 43 207.209 42.55 206.275 41.65C205.375 40.75 204.925 39.5333 204.925 38C204.925 37.5 204.975 37 205.075 36.5C205.142 35.8333 205.175 35.3833 205.175 35.15C205.175 34.6167 204.992 34.35 204.625 34.35C204.125 34.35 203.459 34.9167 202.625 36.05C201.825 37.15 201.025 38.6167 200.225 40.45C199.425 42.2833 198.775 44.2167 198.275 46.25C197.909 47.8167 197.475 48.8833 196.975 49.45C196.509 49.9833 195.759 50.25 194.725 50.25ZM220.479 23.4C219.079 23.4 218.029 23.0833 217.329 22.45C216.629 21.7833 216.279 20.8667 216.279 19.7C216.279 18.5333 216.729 17.5667 217.629 16.8C218.563 16 219.713 15.6 221.079 15.6C222.313 15.6 223.313 15.9 224.079 16.5C224.846 17.1 225.229 17.95 225.229 19.05C225.229 20.3833 224.796 21.45 223.929 22.25C223.063 23.0167 221.913 23.4 220.479 23.4ZM220.079 50.25C217.913 50.25 216.329 49.4833 215.329 47.95C214.363 46.4167 213.879 44.3833 213.879 41.85C213.879 40.35 214.063 38.4333 214.429 36.1C214.829 33.7333 215.329 31.5333 215.929 29.5C216.229 28.4333 216.629 27.7 217.129 27.3C217.629 26.9 218.429 26.7 219.529 26.7C221.229 26.7 222.079 27.2667 222.079 28.4C222.079 29.2333 221.763 31.1667 221.129 34.2C220.329 37.8667 219.929 40.35 219.929 41.65C219.929 42.65 220.063 43.4167 220.329 43.95C220.596 44.4833 221.046 44.75 221.679 44.75C222.279 44.75 223.029 44.3333 223.929 43.5C224.829 42.6667 226.029 41.35 227.529 39.55C227.929 39.0833 228.379 38.85 228.879 38.85C229.313 38.85 229.646 39.05 229.879 39.45C230.146 39.85 230.279 40.4 230.279 41.1C230.279 42.4333 229.963 43.4667 229.329 44.2C226.029 48.2333 222.946 50.25 220.079 50.25ZM245.696 36C246.629 36 247.096 36.7 247.096 38.1C247.096 40.7333 245.029 42.05 240.896 42.05C240.096 42.05 238.946 41.9 237.446 41.6C237.879 43.6667 238.229 45.9667 238.496 48.5C238.796 51 238.946 53.0667 238.946 54.7C238.946 58.3 238.362 61.05 237.196 62.95C236.029 64.85 234.496 65.8 232.596 65.8C230.196 65.8 228.479 64.1 227.446 60.7C226.446 57.3 225.946 52.1667 225.946 45.3C225.946 38.9 226.629 32.4167 227.996 25.85C229.396 19.25 231.296 13.8 233.696 9.5C236.129 5.16666 238.796 3 241.696 3C243.262 3 244.479 3.7 245.346 5.1C246.246 6.5 246.696 8.38333 246.696 10.75C246.696 18.5833 242.012 27.1167 232.646 36.35C232.312 39.6167 232.146 42.4833 232.146 44.95C232.146 48.3833 232.262 51.9 232.496 55.5C232.729 59.1333 233.112 60.95 233.646 60.95C234.646 60.95 235.146 59.2167 235.146 55.75C235.146 53.15 234.962 50.6333 234.596 48.2C234.262 45.7667 233.796 43.2 233.196 40.5C233.162 40.0667 233.296 39.5167 233.596 38.85C233.929 38.1833 234.329 37.6 234.796 37.1C235.262 36.6 235.679 36.35 236.046 36.35C236.712 36.35 237.512 36.3833 238.446 36.45C238.746 36.4833 239.096 36.5 239.496 36.5C240.829 36.5 242.312 36.3833 243.946 36.15C244.212 36.1167 244.496 36.0833 244.796 36.05C245.096 36.0167 245.396 36 245.696 36ZM240.646 7.95C240.046 7.95 239.296 8.96667 238.396 11C237.529 13.0333 236.662 15.7333 235.796 19.1C234.929 22.4333 234.179 25.9667 233.546 29.7C236.212 26.6667 238.262 23.5167 239.696 20.25C241.129 16.95 241.862 13.8667 241.896 11C241.896 8.96667 241.479 7.95 240.646 7.95ZM260.824 26.7C261.59 26.7 262.124 26.8 262.424 27C262.724 27.2 262.874 27.5333 262.874 28C262.874 28.8 262.44 31.65 261.574 36.55C260.807 41.25 260.357 44.0333 260.224 44.9C258.99 53.4667 257.29 60.25 255.124 65.25C252.957 70.25 250.074 72.75 246.474 72.75C244.774 72.75 243.39 72.2167 242.324 71.15C241.257 70.1167 240.724 68.75 240.724 67.05C240.724 65.4833 241.074 63.8833 241.774 62.25C242.507 60.6167 243.84 58.7333 245.774 56.6C247.74 54.5 250.507 52.0833 254.074 49.35L254.224 48.2C254.457 46.9667 254.724 45.2 255.024 42.9C254.357 45.3 253.424 47.1333 252.224 48.4C251.024 49.6333 249.757 50.25 248.424 50.25C246.924 50.25 245.69 49.5667 244.724 48.2C243.79 46.8 243.324 45.0667 243.324 43C243.324 40.5 243.49 38.2167 243.824 36.15C244.157 34.05 244.707 31.8333 245.474 29.5C245.807 28.5 246.274 27.7833 246.874 27.35C247.474 26.9167 248.424 26.7 249.724 26.7C250.457 26.7 250.957 26.8167 251.224 27.05C251.524 27.2833 251.674 27.6333 251.674 28.1C251.674 28.3667 251.49 29.2667 251.124 30.8C250.79 32.0333 250.524 33.15 250.324 34.15C250.057 35.5167 249.824 36.8333 249.624 38.1C249.424 39.3333 249.324 40.35 249.324 41.15C249.324 42.4167 249.674 43.05 250.374 43.05C250.874 43.05 251.49 42.55 252.224 41.55C252.99 40.55 253.79 39.0333 254.624 37C255.49 34.9667 256.324 32.4667 257.124 29.5C257.39 28.5 257.79 27.7833 258.324 27.35C258.89 26.9167 259.724 26.7 260.824 26.7ZM247.024 67.9C247.857 67.9 248.79 66.9333 249.824 65C250.857 63.0667 251.89 59.85 252.924 55.35C250.357 57.5167 248.49 59.4833 247.324 61.25C246.19 63.05 245.624 64.6167 245.624 65.95C245.624 66.5167 245.724 66.9833 245.924 67.35C246.157 67.7167 246.524 67.9 247.024 67.9Z" fill="black"/>
<circle cx="35" cy="35" r="35" fill="#FE6019"/>
<path d="M58.2213 23C58.2213 25.8333 57.2213 28.2833 55.2213 30.35C53.2213 32.3833 50.3046 33.85 46.4713 34.75C48.538 35.3167 50.1046 36.25 51.1713 37.55C52.238 38.8167 52.7713 40.2833 52.7713 41.95C52.7713 44.5833 51.938 46.8667 50.2713 48.8C48.638 50.7333 46.238 52.2333 43.0713 53.3C39.9046 54.3333 36.088 54.85 31.6213 54.85C29.9546 54.85 28.6213 54.8 27.6213 54.7C27.588 55.6333 27.188 56.3333 26.4213 56.8C25.6546 57.2667 24.6713 57.5 23.4713 57.5C22.2713 57.5 21.438 57.2333 20.9713 56.7C20.538 56.1667 20.3546 55.3833 20.4213 54.35C20.7213 49.6833 21.3046 44.8 22.1713 39.7C23.038 34.5667 24.138 29.6167 25.4713 24.85C25.7046 24.0167 26.1713 23.4333 26.8713 23.1C27.5713 22.7667 28.488 22.6 29.6213 22.6C31.6546 22.6 32.6713 23.1667 32.6713 24.3C32.6713 24.7667 32.5713 25.3 32.3713 25.9C31.5046 28.5 30.638 32.0333 29.7713 36.5C28.9046 40.9333 28.288 45.1667 27.9213 49.2C29.5213 49.3333 30.8213 49.4 31.8213 49.4C36.488 49.4 39.9046 48.7333 42.0713 47.4C44.2713 46.0333 45.3713 44.3 45.3713 42.2C45.3713 40.7333 44.738 39.5 43.4713 38.5C42.238 37.5 40.1546 36.95 37.2213 36.85C36.5546 36.8167 36.088 36.65 35.8213 36.35C35.5546 36.05 35.4213 35.5667 35.4213 34.9C35.4213 33.9333 35.6213 33.15 36.0213 32.55C36.4213 31.95 37.1546 31.6333 38.2213 31.6C40.588 31.5333 42.7213 31.1833 44.6213 30.55C46.5546 29.9167 48.0713 29.0333 49.1713 27.9C50.2713 26.7333 50.8213 25.3833 50.8213 23.85C50.8213 21.9167 49.8713 20.4 47.9713 19.3C46.0713 18.1667 43.1546 17.6 39.2213 17.6C35.6546 17.6 32.2046 18.0667 28.8713 19C25.538 19.9 22.7046 21.05 20.3713 22.45C19.3046 23.0833 18.4046 23.4 17.6713 23.4C17.0713 23.4 16.6046 23.2 16.2713 22.8C15.9713 22.3667 15.8213 21.8333 15.8213 21.2C15.8213 20.3667 15.988 19.65 16.3213 19.05C16.688 18.45 17.538 17.7667 18.8713 17C21.6713 15.4 24.9546 14.15 28.7213 13.25C32.488 12.35 36.338 11.9 40.2713 11.9C46.3046 11.9 50.8046 12.9167 53.7713 14.95C56.738 16.9833 58.2213 19.6667 58.2213 23Z" fill="white"/>
<circle cx="220" cy="18.5" r="6" fill="#FE6019"/>
</svg>
