<svg version="1.1" viewBox="0.0 0.0 285.0 75.0" fill="none" stroke="none" stroke-linecap="square" stroke-miterlimit="10" xmlns:xlink="http://www.w3.org/1999/xlink" xmlns="http://www.w3.org/2000/svg"><clipPath id="p.0"><path d="m0 0l285.0 0l0 75.0l-285.0 0l0 -75.0z" clip-rule="nonzero"/></clipPath><g clip-path="url(#p.0)"><path fill="#000000" fill-opacity="0.0" d="m0 0l285.0 0l0 75.0l-285.0 0z" fill-rule="evenodd"/><path fill="#000000" fill-opacity="0.0" d="m70.76903 70.855644l167.46457 -1.1968536" fill-rule="evenodd"/><path stroke="#fe6019" stroke-width="4.0" stroke-linejoin="round" stroke-linecap="butt" d="m70.76903 70.855644l167.46457 -1.1968536" fill-rule="evenodd"/><path fill="#fe6019" d="m1.5091866 37.501312l0 0c0 -19.88225 16.11775 -36.0 36.0 -36.0l0 0l0 0c9.547794 0 18.704536 3.7928462 25.455845 10.544155c6.7513084 6.7513094 10.544155 15.9080515 10.544155 25.455845l0 0l0 0c0 19.882252 -16.117748 36.0 -36.0 36.0l0 0l0 0c-19.88225 0 -36.0 -16.117748 -36.0 -36.0z" fill-rule="evenodd"/><path fill="#ffffff" d="m20.474098 61.50131l0 -47.390625l16.59375 0q8.625 0 13.078125 3.3125q4.46875 3.296875 4.46875 9.671875q0 3.484375 -1.796875 6.140625q-1.78125 2.65625 -4.96875 3.890625q3.640625 0.90625 5.734375 3.671875q2.109375 2.765625 2.109375 6.765625q0 6.84375 -4.375 10.359375q-4.359375 3.515625 -12.421875 3.578125l-18.421875 0zm9.765625 -20.640625l0 12.796875l8.359375 0q3.453125 0 5.390625 -1.640625q1.9375 -1.640625 1.9375 -4.546875q0 -6.5 -6.734375 -6.609375l-8.953125 0zm0 -6.890625l7.21875 0q7.390625 -0.140625 7.390625 -5.890625q0 -3.21875 -1.875 -4.640625q-1.875 -1.421875 -5.90625 -1.421875l-6.828125 0l0 11.953125z" fill-rule="nonzero"/><path fill="#000000" fill-opacity="0.0" d="m36.183727 1.5013124l246.14174 0l0 69.35433l-246.14174 0z" fill-rule="evenodd"/><path fill="#000000" d="m77.22019 60.539104q-7.59375 0 -12.359375 -4.65625q-4.765621 -4.65625 -4.765621 -12.40625l0 -0.90625q0 -5.1875 2.0 -9.28125q2.0156212 -4.109375 5.703121 -6.328125q3.6875 -2.21875 8.40625 -2.21875q7.078125 0 11.140625 4.46875q4.078125 4.46875 4.078125 12.671875l0 3.75l-21.984375 0q0.453125 3.390625 2.703125 5.4375q2.25 2.03125 5.6875 2.03125q5.328125 0 8.328125 -3.859375l4.53125 5.078125q-2.078125 2.9375 -5.625 4.578125q-3.53125 1.640625 -7.84375 1.640625zm-1.046875 -28.328125q-2.75 0 -4.453125 1.859375q-1.703125 1.84375 -2.1875 5.28125l12.828125 0l0 -0.734375q-0.0625 -3.0625 -1.65625 -4.734375q-1.59375 -1.671875 -4.53125 -1.671875zm31.51477 -15.3125l0 8.484375l5.90625 0l0 6.765625l-5.90625 0l0 17.21875q0 1.921875 0.734375 2.75q0.734375 0.828125 2.8125 0.828125q1.53125 0 2.703125 -0.21875l0 6.984375q-2.703125 0.828125 -5.578125 0.828125q-9.703125 0 -9.890625 -9.796875l0 -18.59375l-5.046875 0l0 -6.765625l5.046875 0l0 -8.484375l9.21875 0zm22.073769 0l0 8.484375l5.90625 0l0 6.765625l-5.90625 0l0 17.21875q0 1.921875 0.734375 2.75q0.734375 0.828125 2.8125 0.828125q1.53125 0 2.703125 -0.21875l0 6.984375q-2.703125 0.828125 -5.578125 0.828125q-9.703133 0 -9.890633 -9.796875l0 -18.59375l-5.046875 0l0 -6.765625l5.046875 0l0 -8.484375l9.218758 0zm26.917511 43.640625q-7.59375 0 -12.359375 -4.65625q-4.765625 -4.65625 -4.765625 -12.40625l0 -0.90625q0 -5.1875 2.0 -9.28125q2.015625 -4.109375 5.703125 -6.328125q3.6875 -2.21875 8.40625 -2.21875q7.078125 0 11.140625 4.46875q4.078125 4.46875 4.078125 12.671875l0 3.75l-21.984375 0q0.453125 3.390625 2.703125 5.4375q2.25 2.03125 5.6875 2.03125q5.328125 0 8.328125 -3.859375l4.53125 5.078125q-2.078125 2.9375 -5.625 4.578125q-3.53125 1.640625 -7.84375 1.640625zm-1.046875 -28.328125q-2.75 0 -4.453125 1.859375q-1.703125 1.84375 -2.1875 5.28125l12.828125 0l0 -0.734375q-0.0625 -3.0625 -1.65625 -4.734375q-1.59375 -1.671875 -4.53125 -1.671875zm39.874146 1.8125q-1.890625 -0.25 -3.3125 -0.25q-5.234375 0 -6.859375 3.546875l0 22.578125l-9.21875 0l0 -34.515625l8.703125 0l0.25 4.109375q2.78125 -4.75 7.6875 -4.75q1.53125 0 2.875 0.421875l-0.125 8.859375zm14.156311 25.875l-9.25 0l0 -34.515625l9.25 0l0 34.515625zm-9.78125 -43.453125q0 -2.0625 1.375 -3.40625q1.390625 -1.34375 3.78125 -1.34375q2.359375 0 3.765625 1.34375q1.40625 1.34375 1.40625 3.40625q0 2.109375 -1.421875 3.453125q-1.421875 1.34375 -3.75 1.34375q-2.328125 0 -3.75 -1.34375q-1.40625 -1.34375 -1.40625 -3.453125zm19.899017 43.453125l0 -27.75l-5.140625 0l0 -6.765625l5.140625 0l0 -2.9375q0 -5.796875 3.328125 -9.0q3.34375 -3.21875 9.328125 -3.21875q1.921875 0 4.6875 0.640625l-0.09375 7.15625q-1.140625 -0.296875 -2.796875 -0.296875q-5.203125 0 -5.203125 4.875l0 2.78125l6.859375 0l0 6.765625l-6.859375 0l0 27.75l-9.25 0zm33.772873 -13.046875l6.390625 -21.46875l9.890625 0l-13.890625 39.875004l-0.765625 1.8125q-3.09375 6.765625 -10.203125 6.765625q-2.0 0 -4.078125 -0.609375l0 -6.984375l1.40625 0.03125q2.609375 0 3.890625 -0.796875q1.296875 -0.796875 2.03125 -2.6406288l1.09375 -2.84375l-12.09375 -34.609375l9.921875 0l6.40625 21.46875z" fill-rule="nonzero"/><path fill="#fe6019" d="m199.52756 16.32021l0 0c0 -3.444169 2.7920532 -6.2362204 6.2362213 -6.2362204l0 0c1.6539459 0 3.240158 0.65702915 4.409668 1.8265467c1.1695251 1.1695185 1.8265533 2.7557259 1.8265533 4.4096737l0 0c0 3.44417 -2.7920532 6.2362213 -6.2362213 6.2362213l0 0c-3.444168 0 -6.2362213 -2.7920513 -6.2362213 -6.2362213z" fill-rule="evenodd"/></g></svg>