<svg width="274" height="80" viewBox="0 0 274 80" fill="none" xmlns="http://www.w3.org/2000/svg">
<circle cx="37.5" cy="37.5" r="37.5" fill="#FE6019"/>
<line x1="88" y1="67" x2="273" y2="67" stroke="#FE6019" stroke-width="2"/>
<path d="M129.015 25C129.015 27.8333 128.015 30.2833 126.015 32.35C124.015 34.3833 121.099 35.85 117.265 36.75C119.332 37.3167 120.899 38.25 121.965 39.55C123.032 40.8167 123.565 42.2833 123.565 43.95C123.565 46.5833 122.732 48.8667 121.065 50.8C119.432 52.7333 117.032 54.2333 113.865 55.3C110.699 56.3333 106.882 56.85 102.415 56.85C100.749 56.85 99.4152 56.8 98.4152 56.7C98.3819 57.6333 97.9819 58.3333 97.2152 58.8C96.4486 59.2667 95.4652 59.5 94.2652 59.5C93.0652 59.5 92.2319 59.2333 91.7652 58.7C91.3319 58.1667 91.1486 57.3833 91.2152 56.35C91.5152 51.6833 92.0986 46.8 92.9652 41.7C93.8319 36.5667 94.9319 31.6167 96.2652 26.85C96.4986 26.0167 96.9652 25.4333 97.6652 25.1C98.3652 24.7667 99.2819 24.6 100.415 24.6C102.449 24.6 103.465 25.1667 103.465 26.3C103.465 26.7667 103.365 27.3 103.165 27.9C102.299 30.5 101.432 34.0333 100.565 38.5C99.6986 42.9333 99.0819 47.1667 98.7152 51.2C100.315 51.3333 101.615 51.4 102.615 51.4C107.282 51.4 110.699 50.7333 112.865 49.4C115.065 48.0333 116.165 46.3 116.165 44.2C116.165 42.7333 115.532 41.5 114.265 40.5C113.032 39.5 110.949 38.95 108.015 38.85C107.349 38.8167 106.882 38.65 106.615 38.35C106.349 38.05 106.215 37.5667 106.215 36.9C106.215 35.9333 106.415 35.15 106.815 34.55C107.215 33.95 107.949 33.6333 109.015 33.6C111.382 33.5333 113.515 33.1833 115.415 32.55C117.349 31.9167 118.865 31.0333 119.965 29.9C121.065 28.7333 121.615 27.3833 121.615 25.85C121.615 23.9167 120.665 22.4 118.765 21.3C116.865 20.1667 113.949 19.6 110.015 19.6C106.449 19.6 102.999 20.0667 99.6652 21C96.3319 21.9 93.4986 23.05 91.1652 24.45C90.0986 25.0833 89.1986 25.4 88.4652 25.4C87.8652 25.4 87.3986 25.2 87.0652 24.8C86.7652 24.3667 86.6152 23.8333 86.6152 23.2C86.6152 22.3667 86.7819 21.65 87.1152 21.05C87.4819 20.45 88.3319 19.7667 89.6652 19C92.4652 17.4 95.7486 16.15 99.5152 15.25C103.282 14.35 107.132 13.9 111.065 13.9C117.099 13.9 121.599 14.9167 124.565 16.95C127.532 18.9833 129.015 21.6667 129.015 25ZM149.915 45.85C150.348 45.85 150.682 46.05 150.915 46.45C151.182 46.85 151.315 47.4 151.315 48.1C151.315 49.4333 150.998 50.4667 150.365 51.2C149.132 52.7 147.382 54.0833 145.115 55.35C142.882 56.6167 140.482 57.25 137.915 57.25C134.415 57.25 131.698 56.3 129.765 54.4C127.832 52.5 126.865 49.9 126.865 46.6C126.865 44.3 127.348 42.1667 128.315 40.2C129.282 38.2 130.615 36.6167 132.315 35.45C134.048 34.2833 135.998 33.7 138.165 33.7C140.098 33.7 141.648 34.2833 142.815 35.45C143.982 36.5833 144.565 38.1333 144.565 40.1C144.565 42.4 143.732 44.3833 142.065 46.05C140.432 47.6833 137.648 48.9833 133.715 49.95C134.548 51.4833 136.132 52.25 138.465 52.25C139.965 52.25 141.665 51.7333 143.565 50.7C145.498 49.6333 147.165 48.25 148.565 46.55C148.965 46.0833 149.415 45.85 149.915 45.85ZM137.315 38.6C136.082 38.6 135.032 39.3167 134.165 40.75C133.332 42.1833 132.915 43.9167 132.915 45.95V46.05C134.882 45.5833 136.432 44.8833 137.565 43.95C138.698 43.0167 139.265 41.9333 139.265 40.7C139.265 40.0667 139.082 39.5667 138.715 39.2C138.382 38.8 137.915 38.6 137.315 38.6ZM185.194 45.85C185.627 45.85 185.96 46.05 186.194 46.45C186.46 46.85 186.594 47.4 186.594 48.1C186.594 49.4333 186.277 50.4667 185.644 51.2C184.21 52.9667 182.644 54.4167 180.944 55.55C179.244 56.6833 177.294 57.25 175.094 57.25C171.027 57.25 168.194 55.55 166.594 52.15C165.727 53.55 164.577 54.75 163.144 55.75C161.71 56.75 160.177 57.25 158.544 57.25C155.377 57.25 153.044 55.9667 151.544 53.4C150.077 50.8 149.344 47.3 149.344 42.9C149.344 41.2667 149.427 39.45 149.594 37.45H147.544C146.544 37.45 145.86 37.2667 145.494 36.9C145.16 36.5333 144.994 35.95 144.994 35.15C144.994 33.2833 145.744 32.35 147.244 32.35H150.294C150.927 28.8167 151.81 25.6167 152.944 22.75C154.077 19.8833 155.444 17.6 157.044 15.9C158.644 14.2 160.377 13.35 162.244 13.35C163.644 13.35 164.744 13.9667 165.544 15.2C166.344 16.4333 166.744 17.9833 166.744 19.85C166.744 24.55 164.927 28.7167 161.294 32.35H165.844C166.477 28.8167 167.36 25.6167 168.494 22.75C169.627 19.8833 170.994 17.6 172.594 15.9C174.194 14.2 175.927 13.35 177.794 13.35C179.194 13.35 180.294 13.9667 181.094 15.2C181.894 16.4333 182.294 17.9833 182.294 19.85C182.294 24.55 180.477 28.7167 176.844 32.35H181.394C181.927 32.35 182.31 32.4667 182.544 32.7C182.777 32.9333 182.894 33.3667 182.894 34C182.894 36.3 181.01 37.45 177.244 37.45H171.194C171.094 39.05 171.044 40.6833 171.044 42.35C171.044 45.8167 171.444 48.25 172.244 49.65C173.077 51.05 174.377 51.75 176.144 51.75C177.577 51.75 178.844 51.3167 179.944 50.45C181.044 49.5833 182.344 48.2833 183.844 46.55C184.244 46.0833 184.694 45.85 185.194 45.85ZM160.894 18.15C160.394 18.15 159.827 18.7833 159.194 20.05C158.594 21.2833 158.01 23.0167 157.444 25.25C156.91 27.45 156.46 29.9 156.094 32.6C158.06 30.9 159.527 29 160.494 26.9C161.494 24.7667 161.994 22.8333 161.994 21.1C161.994 19.1333 161.627 18.15 160.894 18.15ZM176.444 18.15C175.944 18.15 175.377 18.7833 174.744 20.05C174.144 21.2833 173.56 23.0167 172.994 25.25C172.46 27.45 172.01 29.9 171.644 32.6C173.61 30.9 175.077 29 176.044 26.9C177.044 24.7667 177.544 22.8333 177.544 21.1C177.544 19.1333 177.177 18.15 176.444 18.15ZM159.594 51.75C160.594 51.75 161.594 51.2833 162.594 50.35C163.594 49.4167 164.444 48.2667 165.144 46.9C164.977 45.8667 164.894 44.5333 164.894 42.9C164.894 41.2667 164.977 39.45 165.144 37.45H155.644C155.544 39.05 155.494 40.6833 155.494 42.35C155.494 45.7167 155.844 48.1333 156.544 49.6C157.277 51.0333 158.294 51.75 159.594 51.75ZM204.846 45.85C205.28 45.85 205.613 46.05 205.846 46.45C206.113 46.85 206.246 47.4 206.246 48.1C206.246 49.4333 205.93 50.4667 205.296 51.2C204.063 52.7 202.313 54.0833 200.046 55.35C197.813 56.6167 195.413 57.25 192.846 57.25C189.346 57.25 186.63 56.3 184.696 54.4C182.763 52.5 181.796 49.9 181.796 46.6C181.796 44.3 182.28 42.1667 183.246 40.2C184.213 38.2 185.546 36.6167 187.246 35.45C188.98 34.2833 190.93 33.7 193.096 33.7C195.03 33.7 196.58 34.2833 197.746 35.45C198.913 36.5833 199.496 38.1333 199.496 40.1C199.496 42.4 198.663 44.3833 196.996 46.05C195.363 47.6833 192.58 48.9833 188.646 49.95C189.48 51.4833 191.063 52.25 193.396 52.25C194.896 52.25 196.596 51.7333 198.496 50.7C200.43 49.6333 202.096 48.25 203.496 46.55C203.896 46.0833 204.346 45.85 204.846 45.85ZM192.246 38.6C191.013 38.6 189.963 39.3167 189.096 40.75C188.263 42.1833 187.846 43.9167 187.846 45.95V46.05C189.813 45.5833 191.363 44.8833 192.496 43.95C193.63 43.0167 194.196 41.9333 194.196 40.7C194.196 40.0667 194.013 39.5667 193.646 39.2C193.313 38.8 192.846 38.6 192.246 38.6ZM205.725 57.25C204.459 57.25 203.559 56.5833 203.025 55.25C202.525 53.9167 202.275 51.7833 202.275 48.85C202.275 44.5167 202.892 40.4 204.125 36.5C204.425 35.5333 204.909 34.8333 205.575 34.4C206.275 33.9333 207.242 33.7 208.475 33.7C209.142 33.7 209.609 33.7833 209.875 33.95C210.142 34.1167 210.275 34.4333 210.275 34.9C210.275 35.4333 210.025 36.6333 209.525 38.5C209.192 39.8333 208.925 41 208.725 42C208.525 43 208.359 44.2333 208.225 45.7C209.325 42.8333 210.559 40.5 211.925 38.7C213.292 36.9 214.625 35.6167 215.925 34.85C217.259 34.0833 218.475 33.7 219.575 33.7C221.742 33.7 222.825 34.7833 222.825 36.95C222.825 37.3833 222.675 38.4333 222.375 40.1C222.109 41.4333 221.975 42.2667 221.975 42.6C221.975 43.7667 222.392 44.35 223.225 44.35C224.159 44.35 225.359 43.6167 226.825 42.15C227.259 41.7167 227.709 41.5 228.175 41.5C228.609 41.5 228.942 41.7 229.175 42.1C229.442 42.4667 229.575 42.9667 229.575 43.6C229.575 44.8333 229.242 45.8 228.575 46.5C227.642 47.4667 226.542 48.3 225.275 49C224.042 49.6667 222.725 50 221.325 50C219.559 50 218.209 49.55 217.275 48.65C216.375 47.75 215.925 46.5333 215.925 45C215.925 44.5 215.975 44 216.075 43.5C216.142 42.8333 216.175 42.3833 216.175 42.15C216.175 41.6167 215.992 41.35 215.625 41.35C215.125 41.35 214.459 41.9167 213.625 43.05C212.825 44.15 212.025 45.6167 211.225 47.45C210.425 49.2833 209.775 51.2167 209.275 53.25C208.909 54.8167 208.475 55.8833 207.975 56.45C207.509 56.9833 206.759 57.25 205.725 57.25ZM231.479 30.4C230.079 30.4 229.029 30.0833 228.329 29.45C227.629 28.7833 227.279 27.8667 227.279 26.7C227.279 25.5333 227.729 24.5667 228.629 23.8C229.563 23 230.713 22.6 232.079 22.6C233.313 22.6 234.313 22.9 235.079 23.5C235.846 24.1 236.229 24.95 236.229 26.05C236.229 27.3833 235.796 28.45 234.929 29.25C234.063 30.0167 232.913 30.4 231.479 30.4ZM231.079 57.25C228.913 57.25 227.329 56.4833 226.329 54.95C225.363 53.4167 224.879 51.3833 224.879 48.85C224.879 47.35 225.063 45.4333 225.429 43.1C225.829 40.7333 226.329 38.5333 226.929 36.5C227.229 35.4333 227.629 34.7 228.129 34.3C228.629 33.9 229.429 33.7 230.529 33.7C232.229 33.7 233.079 34.2667 233.079 35.4C233.079 36.2333 232.763 38.1667 232.129 41.2C231.329 44.8667 230.929 47.35 230.929 48.65C230.929 49.65 231.063 50.4167 231.329 50.95C231.596 51.4833 232.046 51.75 232.679 51.75C233.279 51.75 234.029 51.3333 234.929 50.5C235.829 49.6667 237.029 48.35 238.529 46.55C238.929 46.0833 239.379 45.85 239.879 45.85C240.313 45.85 240.646 46.05 240.879 46.45C241.146 46.85 241.279 47.4 241.279 48.1C241.279 49.4333 240.963 50.4667 240.329 51.2C237.029 55.2333 233.946 57.25 231.079 57.25ZM256.696 43C257.629 43 258.096 43.7 258.096 45.1C258.096 47.7333 256.029 49.05 251.896 49.05C251.096 49.05 249.946 48.9 248.446 48.6C248.879 50.6667 249.229 52.9667 249.496 55.5C249.796 58 249.946 60.0667 249.946 61.7C249.946 65.3 249.362 68.05 248.196 69.95C247.029 71.85 245.496 72.8 243.596 72.8C241.196 72.8 239.479 71.1 238.446 67.7C237.446 64.3 236.946 59.1667 236.946 52.3C236.946 45.9 237.629 39.4167 238.996 32.85C240.396 26.25 242.296 20.8 244.696 16.5C247.129 12.1667 249.796 10 252.696 10C254.262 10 255.479 10.7 256.346 12.1C257.246 13.5 257.696 15.3833 257.696 17.75C257.696 25.5833 253.012 34.1167 243.646 43.35C243.312 46.6167 243.146 49.4833 243.146 51.95C243.146 55.3833 243.262 58.9 243.496 62.5C243.729 66.1333 244.112 67.95 244.646 67.95C245.646 67.95 246.146 66.2167 246.146 62.75C246.146 60.15 245.962 57.6333 245.596 55.2C245.262 52.7667 244.796 50.2 244.196 47.5C244.162 47.0667 244.296 46.5167 244.596 45.85C244.929 45.1833 245.329 44.6 245.796 44.1C246.262 43.6 246.679 43.35 247.046 43.35C247.712 43.35 248.512 43.3833 249.446 43.45C249.746 43.4833 250.096 43.5 250.496 43.5C251.829 43.5 253.312 43.3833 254.946 43.15C255.212 43.1167 255.496 43.0833 255.796 43.05C256.096 43.0167 256.396 43 256.696 43ZM251.646 14.95C251.046 14.95 250.296 15.9667 249.396 18C248.529 20.0333 247.662 22.7333 246.796 26.1C245.929 29.4333 245.179 32.9667 244.546 36.7C247.212 33.6667 249.262 30.5167 250.696 27.25C252.129 23.95 252.862 20.8667 252.896 18C252.896 15.9667 252.479 14.95 251.646 14.95ZM271.824 33.7C272.59 33.7 273.124 33.8 273.424 34C273.724 34.2 273.874 34.5333 273.874 35C273.874 35.8 273.44 38.65 272.574 43.55C271.807 48.25 271.357 51.0333 271.224 51.9C269.99 60.4667 268.29 67.25 266.124 72.25C263.957 77.25 261.074 79.75 257.474 79.75C255.774 79.75 254.39 79.2167 253.324 78.15C252.257 77.1167 251.724 75.75 251.724 74.05C251.724 72.4833 252.074 70.8833 252.774 69.25C253.507 67.6167 254.84 65.7333 256.774 63.6C258.74 61.5 261.507 59.0833 265.074 56.35L265.224 55.2C265.457 53.9667 265.724 52.2 266.024 49.9C265.357 52.3 264.424 54.1333 263.224 55.4C262.024 56.6333 260.757 57.25 259.424 57.25C257.924 57.25 256.69 56.5667 255.724 55.2C254.79 53.8 254.324 52.0667 254.324 50C254.324 47.5 254.49 45.2167 254.824 43.15C255.157 41.05 255.707 38.8333 256.474 36.5C256.807 35.5 257.274 34.7833 257.874 34.35C258.474 33.9167 259.424 33.7 260.724 33.7C261.457 33.7 261.957 33.8167 262.224 34.05C262.524 34.2833 262.674 34.6333 262.674 35.1C262.674 35.3667 262.49 36.2667 262.124 37.8C261.79 39.0333 261.524 40.15 261.324 41.15C261.057 42.5167 260.824 43.8333 260.624 45.1C260.424 46.3333 260.324 47.35 260.324 48.15C260.324 49.4167 260.674 50.05 261.374 50.05C261.874 50.05 262.49 49.55 263.224 48.55C263.99 47.55 264.79 46.0333 265.624 44C266.49 41.9667 267.324 39.4667 268.124 36.5C268.39 35.5 268.79 34.7833 269.324 34.35C269.89 33.9167 270.724 33.7 271.824 33.7ZM258.024 74.9C258.857 74.9 259.79 73.9333 260.824 72C261.857 70.0667 262.89 66.85 263.924 62.35C261.357 64.5167 259.49 66.4833 258.324 68.25C257.19 70.05 256.624 71.6167 256.624 72.95C256.624 73.5167 256.724 73.9833 256.924 74.35C257.157 74.7167 257.524 74.9 258.024 74.9Z" fill="black"/>
<path d="M64.7655 24.6C64.7655 28 63.5655 30.94 61.1655 33.42C58.7655 35.86 55.2655 37.62 50.6655 38.7C53.1455 39.38 55.0256 40.5 56.3056 42.06C57.5856 43.58 58.2256 45.34 58.2256 47.34C58.2256 50.5 57.2256 53.24 55.2255 55.56C53.2655 57.88 50.3855 59.68 46.5855 60.96C42.7855 62.2 38.2055 62.82 32.8455 62.82C30.8455 62.82 29.2455 62.76 28.0455 62.64C28.0055 63.76 27.5255 64.6 26.6055 65.16C25.6855 65.72 24.5055 66 23.0655 66C21.6255 66 20.6255 65.68 20.0655 65.04C19.5455 64.4 19.3255 63.46 19.4055 62.22C19.7655 56.62 20.4655 50.76 21.5055 44.64C22.5455 38.48 23.8655 32.54 25.4655 26.82C25.7455 25.82 26.3055 25.12 27.1455 24.72C27.9855 24.32 29.0855 24.12 30.4455 24.12C32.8855 24.12 34.1055 24.8 34.1055 26.16C34.1055 26.72 33.9855 27.36 33.7455 28.08C32.7055 31.2 31.6655 35.44 30.6255 40.8C29.5855 46.12 28.8455 51.2 28.4055 56.04C30.3255 56.2 31.8855 56.28 33.0855 56.28C38.6855 56.28 42.7855 55.48 45.3855 53.88C48.0255 52.24 49.3455 50.16 49.3455 47.64C49.3455 45.88 48.5855 44.4 47.0655 43.2C45.5855 42 43.0855 41.34 39.5655 41.22C38.7655 41.18 38.2055 40.98 37.8855 40.62C37.5655 40.26 37.4055 39.68 37.4055 38.88C37.4055 37.72 37.6455 36.78 38.1255 36.06C38.6055 35.34 39.4855 34.96 40.7655 34.92C43.6055 34.84 46.1655 34.42 48.4455 33.66C50.7655 32.9 52.5855 31.84 53.9055 30.48C55.2255 29.08 55.8855 27.46 55.8855 25.62C55.8855 23.3 54.7455 21.48 52.4655 20.16C50.1855 18.8 46.6855 18.12 41.9655 18.12C37.6855 18.12 33.5455 18.68 29.5455 19.8C25.5455 20.88 22.1455 22.26 19.3455 23.94C18.0655 24.7 16.9855 25.08 16.1055 25.08C15.3855 25.08 14.8255 24.84 14.4255 24.36C14.0655 23.84 13.8855 23.2 13.8855 22.44C13.8855 21.44 14.0855 20.58 14.4855 19.86C14.9255 19.14 15.9455 18.32 17.5455 17.4C20.9055 15.48 24.8455 13.98 29.3655 12.9C33.8855 11.82 38.5055 11.28 43.2255 11.28C50.4655 11.28 55.8656 12.5 59.4255 14.94C62.9855 17.38 64.7655 20.6 64.7655 24.6Z" fill="white"/>
<circle cx="231" cy="26" r="6" fill="#FE6019"/>
</svg>
