<svg width="279" height="75" viewBox="0 0 279 75" fill="none" xmlns="http://www.w3.org/2000/svg">
<rect width="75" height="75" rx="20" fill="url(#paint0_linear_0_1)"/>
<path d="M102.63 37.1553H93.5479L93.499 32.4189H101.287C102.622 32.4189 103.737 32.2318 104.632 31.8574C105.527 31.4831 106.202 30.9378 106.658 30.2217C107.13 29.5055 107.366 28.6348 107.366 27.6094C107.366 26.4701 107.146 25.5423 106.707 24.8262C106.284 24.11 105.617 23.5892 104.705 23.2637C103.794 22.9219 102.638 22.751 101.238 22.751H95.7207V53H89.0068V17.4531H101.238C103.257 17.4531 105.055 17.6484 106.634 18.0391C108.229 18.4134 109.58 18.9993 110.687 19.7969C111.793 20.5944 112.632 21.5954 113.201 22.7998C113.787 24.0042 114.08 25.4365 114.08 27.0967C114.08 28.5615 113.738 29.9124 113.055 31.1494C112.387 32.3701 111.354 33.363 109.954 34.1279C108.571 34.8929 106.813 35.3324 104.681 35.4463L102.63 37.1553ZM102.337 53H91.5703L94.3779 47.7266H102.337C103.672 47.7266 104.77 47.5068 105.633 47.0674C106.512 46.6279 107.163 46.0257 107.586 45.2607C108.025 44.4795 108.245 43.5843 108.245 42.5752C108.245 41.4684 108.05 40.5081 107.659 39.6943C107.285 38.8805 106.683 38.2539 105.853 37.8145C105.039 37.375 103.965 37.1553 102.63 37.1553H95.6475L95.6963 32.4189H104.583L106.121 34.25C108.172 34.2663 109.84 34.6732 111.126 35.4707C112.428 36.2682 113.388 37.2936 114.007 38.5469C114.625 39.8001 114.935 41.151 114.935 42.5996C114.935 44.8783 114.438 46.7907 113.445 48.3369C112.469 49.8831 111.036 51.0469 109.148 51.8281C107.277 52.6094 105.006 53 102.337 53ZM132.122 53.4883C130.12 53.4883 128.322 53.1628 126.727 52.5117C125.132 51.8607 123.772 50.9574 122.649 49.8018C121.543 48.6299 120.688 47.2708 120.086 45.7246C119.5 44.1621 119.207 42.4857 119.207 40.6953V39.7188C119.207 37.6842 119.5 35.8369 120.086 34.1768C120.672 32.5003 121.502 31.0599 122.576 29.8555C123.65 28.651 124.936 27.7233 126.434 27.0723C127.931 26.4212 129.583 26.0957 131.39 26.0957C133.261 26.0957 134.913 26.4131 136.346 27.0479C137.778 27.6663 138.974 28.5452 139.935 29.6846C140.895 30.8239 141.619 32.1911 142.107 33.7861C142.596 35.3649 142.84 37.1146 142.84 39.0352V41.7451H122.137V37.3018H136.492V36.8135C136.46 35.7881 136.264 34.8522 135.906 34.0059C135.548 33.1432 134.995 32.4596 134.246 31.9551C133.497 31.4342 132.529 31.1738 131.341 31.1738C130.381 31.1738 129.542 31.3854 128.826 31.8086C128.126 32.2155 127.54 32.8014 127.068 33.5664C126.613 34.3151 126.271 35.2103 126.043 36.252C125.815 37.2936 125.701 38.4492 125.701 39.7188V40.6953C125.701 41.8021 125.848 42.8275 126.141 43.7715C126.45 44.7155 126.897 45.5374 127.483 46.2373C128.086 46.9209 128.802 47.458 129.632 47.8486C130.478 48.223 131.438 48.4102 132.513 48.4102C133.864 48.4102 135.084 48.1497 136.175 47.6289C137.282 47.0918 138.242 46.3024 139.056 45.2607L142.303 48.6299C141.749 49.4437 141.001 50.2249 140.057 50.9736C139.129 51.7223 138.006 52.3327 136.688 52.8047C135.369 53.2604 133.847 53.4883 132.122 53.4883ZM159.661 26.584V31.2227H144.524V26.584H159.661ZM148.577 20.0898H155.047V45.3828C155.047 46.1641 155.153 46.7663 155.364 47.1895C155.576 47.6126 155.893 47.8975 156.316 48.0439C156.74 48.1904 157.244 48.2637 157.83 48.2637C158.253 48.2637 158.644 48.2393 159.002 48.1904C159.36 48.1416 159.661 48.0928 159.905 48.0439L159.93 52.8779C159.393 53.057 158.782 53.2035 158.099 53.3174C157.431 53.4313 156.674 53.4883 155.828 53.4883C154.38 53.4883 153.11 53.2441 152.02 52.7559C150.929 52.2513 150.083 51.4456 149.48 50.3389C148.878 49.2158 148.577 47.7347 148.577 45.8955V20.0898ZM176.458 26.584V31.2227H161.321V26.584H176.458ZM165.374 20.0898H171.844V45.3828C171.844 46.1641 171.95 46.7663 172.161 47.1895C172.373 47.6126 172.69 47.8975 173.113 48.0439C173.536 48.1904 174.041 48.2637 174.627 48.2637C175.05 48.2637 175.441 48.2393 175.799 48.1904C176.157 48.1416 176.458 48.0928 176.702 48.0439L176.727 52.8779C176.189 53.057 175.579 53.2035 174.896 53.3174C174.228 53.4313 173.471 53.4883 172.625 53.4883C171.176 53.4883 169.907 53.2441 168.816 52.7559C167.726 52.2513 166.88 51.4456 166.277 50.3389C165.675 49.2158 165.374 47.7347 165.374 45.8955V20.0898ZM192.62 53.4883C190.618 53.4883 188.82 53.1628 187.225 52.5117C185.63 51.8607 184.271 50.9574 183.147 49.8018C182.041 48.6299 181.186 47.2708 180.584 45.7246C179.998 44.1621 179.705 42.4857 179.705 40.6953V39.7188C179.705 37.6842 179.998 35.8369 180.584 34.1768C181.17 32.5003 182 31.0599 183.074 29.8555C184.148 28.651 185.434 27.7233 186.932 27.0723C188.429 26.4212 190.081 26.0957 191.888 26.0957C193.759 26.0957 195.411 26.4131 196.844 27.0479C198.276 27.6663 199.472 28.5452 200.433 29.6846C201.393 30.8239 202.117 32.1911 202.605 33.7861C203.094 35.3649 203.338 37.1146 203.338 39.0352V41.7451H182.635V37.3018H196.99V36.8135C196.958 35.7881 196.762 34.8522 196.404 34.0059C196.046 33.1432 195.493 32.4596 194.744 31.9551C193.995 31.4342 193.027 31.1738 191.839 31.1738C190.879 31.1738 190.04 31.3854 189.324 31.8086C188.624 32.2155 188.038 32.8014 187.566 33.5664C187.111 34.3151 186.769 35.2103 186.541 36.252C186.313 37.2936 186.199 38.4492 186.199 39.7188V40.6953C186.199 41.8021 186.346 42.8275 186.639 43.7715C186.948 44.7155 187.396 45.5374 187.981 46.2373C188.584 46.9209 189.3 47.458 190.13 47.8486C190.976 48.223 191.937 48.4102 193.011 48.4102C194.362 48.4102 195.582 48.1497 196.673 47.6289C197.78 47.0918 198.74 46.3024 199.554 45.2607L202.801 48.6299C202.247 49.4437 201.499 50.2249 200.555 50.9736C199.627 51.7223 198.504 52.3327 197.186 52.8047C195.867 53.2604 194.345 53.4883 192.62 53.4883ZM214.104 31.9795V53H207.659V26.584H213.763L214.104 31.9795ZM222.137 26.4131L222.039 32.4189C221.681 32.3538 221.274 32.305 220.818 32.2725C220.379 32.2399 219.964 32.2236 219.573 32.2236C218.58 32.2236 217.71 32.362 216.961 32.6387C216.212 32.8991 215.586 33.2816 215.081 33.7861C214.593 34.2907 214.218 34.9092 213.958 35.6416C213.698 36.3577 213.551 37.1715 213.519 38.083L212.127 37.9121C212.127 36.2357 212.298 34.6813 212.64 33.249C212.981 31.8167 213.478 30.5635 214.129 29.4893C214.78 28.415 215.594 27.585 216.57 26.999C217.563 26.3968 218.702 26.0957 219.988 26.0957C220.346 26.0957 220.729 26.1283 221.136 26.1934C221.559 26.2422 221.893 26.3154 222.137 26.4131ZM232.513 26.584V53H226.043V26.584H232.513ZM225.604 19.6748C225.604 18.7145 225.929 17.917 226.58 17.2822C227.247 16.6475 228.143 16.3301 229.266 16.3301C230.389 16.3301 231.276 16.6475 231.927 17.2822C232.594 17.917 232.928 18.7145 232.928 19.6748C232.928 20.6188 232.594 21.4082 231.927 22.043C231.276 22.6777 230.389 22.9951 229.266 22.9951C228.143 22.9951 227.247 22.6777 226.58 22.043C225.929 21.4082 225.604 20.6188 225.604 19.6748ZM247.112 53H240.618V24.1426C240.618 22.1569 241.001 20.4886 241.766 19.1377C242.531 17.7705 243.621 16.737 245.037 16.0371C246.453 15.3372 248.121 14.9873 250.042 14.9873C250.677 14.9873 251.279 15.028 251.849 15.1094C252.435 15.1908 253.012 15.3047 253.582 15.4512L253.46 20.3584C253.151 20.277 252.809 20.2201 252.435 20.1875C252.076 20.1549 251.678 20.1387 251.238 20.1387C250.359 20.1387 249.611 20.2933 248.992 20.6025C248.374 20.9118 247.902 21.3675 247.576 21.9697C247.267 22.5557 247.112 23.2799 247.112 24.1426V53ZM252.459 26.584V31.2227H236.639V26.584H252.459ZM264.178 50.0703L271.258 26.584H278.167L267.571 57.0039C267.327 57.6549 267.01 58.363 266.619 59.1279C266.245 59.8929 265.74 60.6172 265.105 61.3008C264.471 62.0007 263.673 62.5703 262.713 63.0098C261.769 63.4492 260.621 63.6689 259.271 63.6689C258.685 63.6689 258.164 63.6283 257.708 63.5469C257.252 63.4655 256.772 63.3597 256.268 63.2295V58.3955C256.43 58.4118 256.618 58.4199 256.829 58.4199C257.057 58.4362 257.252 58.4443 257.415 58.4443C258.359 58.4443 259.14 58.3304 259.759 58.1025C260.377 57.891 260.874 57.541 261.248 57.0527C261.639 56.5807 261.964 55.9622 262.225 55.1973L264.178 50.0703ZM260.687 26.584L266.668 46.042L267.718 52.8535L263.274 53.6592L253.729 26.584H260.687Z" fill="black"/>
<path d="M38.9917 40.4019H27.1851L27.1216 34.2446H37.2461C38.9811 34.2446 40.4305 34.0013 41.5942 33.5146C42.758 33.028 43.6361 32.3192 44.2285 31.3882C44.8421 30.4572 45.1489 29.3252 45.1489 27.9922C45.1489 26.5111 44.8633 25.305 44.292 24.374C43.7419 23.443 42.8743 22.766 41.6895 22.3428C40.5046 21.8984 39.0023 21.6763 37.1826 21.6763H30.0098V61H21.2817V14.7891H37.1826C39.8063 14.7891 42.1444 15.043 44.1968 15.5508C46.2703 16.0374 48.0265 16.7992 49.4653 17.8359C50.9041 18.8727 51.9938 20.174 52.7344 21.7397C53.4961 23.3055 53.877 25.1675 53.877 27.3257C53.877 29.23 53.4326 30.9862 52.5439 32.5942C51.6764 34.1812 50.3328 35.4718 48.5132 36.4663C46.7147 37.4608 44.4295 38.0321 41.6577 38.1802L38.9917 40.4019ZM38.6108 61H24.6143L28.2642 54.1445H38.6108C40.3459 54.1445 41.7741 53.8589 42.8955 53.2876C44.0381 52.7163 44.8844 51.9334 45.4346 50.939C46.0059 49.9233 46.2915 48.7596 46.2915 47.4478C46.2915 46.009 46.0376 44.7606 45.5298 43.7026C45.0431 42.6447 44.2603 41.8301 43.1812 41.2588C42.1232 40.6875 40.7267 40.4019 38.9917 40.4019H29.9146L29.978 34.2446H41.5308L43.5303 36.625C46.1963 36.6462 48.3651 37.1751 50.0366 38.2119C51.7293 39.2487 52.9777 40.5817 53.7817 42.2109C54.5858 43.8402 54.9878 45.5964 54.9878 47.4795C54.9878 50.4417 54.3424 52.9279 53.0518 54.938C51.7822 56.9481 49.9202 58.4609 47.4658 59.4766C45.0326 60.4922 42.0809 61 38.6108 61Z" fill="white"/>
<circle cx="229" cy="18" r="6" fill="#FE6019"/>
<line x1="88" y1="62" x2="253" y2="62" stroke="#FE6019" stroke-width="2"/>
<defs>
<linearGradient id="paint0_linear_0_1" x1="37.5" y1="0" x2="94" y2="75" gradientUnits="userSpaceOnUse">
<stop stop-color="#FE6019"/>
<stop offset="1" stop-color="#FF8A00" stop-opacity="0"/>
</linearGradient>
</defs>
</svg>
