<svg width="279" height="82" viewBox="0 0 279 82" fill="none" xmlns="http://www.w3.org/2000/svg">
<line x1="91" y1="67" x2="276" y2="67" stroke="#FE6019" stroke-width="2"/>
<rect width="75" height="75" rx="20" fill="url(#paint0_linear_0_1)" style="mix-blend-mode:darken"/>
<path d="M134.015 27C134.015 29.8333 133.015 32.2833 131.015 34.35C129.015 36.3833 126.099 37.85 122.265 38.75C124.332 39.3167 125.899 40.25 126.965 41.55C128.032 42.8167 128.565 44.2833 128.565 45.95C128.565 48.5833 127.732 50.8667 126.065 52.8C124.432 54.7333 122.032 56.2333 118.865 57.3C115.699 58.3333 111.882 58.85 107.415 58.85C105.749 58.85 104.415 58.8 103.415 58.7C103.382 59.6333 102.982 60.3333 102.215 60.8C101.449 61.2667 100.465 61.5 99.2652 61.5C98.0652 61.5 97.2319 61.2333 96.7652 60.7C96.3319 60.1667 96.1486 59.3833 96.2152 58.35C96.5152 53.6833 97.0986 48.8 97.9652 43.7C98.8319 38.5667 99.9319 33.6167 101.265 28.85C101.499 28.0167 101.965 27.4333 102.665 27.1C103.365 26.7667 104.282 26.6 105.415 26.6C107.449 26.6 108.465 27.1667 108.465 28.3C108.465 28.7667 108.365 29.3 108.165 29.9C107.299 32.5 106.432 36.0333 105.565 40.5C104.699 44.9333 104.082 49.1667 103.715 53.2C105.315 53.3333 106.615 53.4 107.615 53.4C112.282 53.4 115.699 52.7333 117.865 51.4C120.065 50.0333 121.165 48.3 121.165 46.2C121.165 44.7333 120.532 43.5 119.265 42.5C118.032 41.5 115.949 40.95 113.015 40.85C112.349 40.8167 111.882 40.65 111.615 40.35C111.349 40.05 111.215 39.5667 111.215 38.9C111.215 37.9333 111.415 37.15 111.815 36.55C112.215 35.95 112.949 35.6333 114.015 35.6C116.382 35.5333 118.515 35.1833 120.415 34.55C122.349 33.9167 123.865 33.0333 124.965 31.9C126.065 30.7333 126.615 29.3833 126.615 27.85C126.615 25.9167 125.665 24.4 123.765 23.3C121.865 22.1667 118.949 21.6 115.015 21.6C111.449 21.6 107.999 22.0667 104.665 23C101.332 23.9 98.4986 25.05 96.1652 26.45C95.0986 27.0833 94.1986 27.4 93.4652 27.4C92.8652 27.4 92.3986 27.2 92.0652 26.8C91.7652 26.3667 91.6152 25.8333 91.6152 25.2C91.6152 24.3667 91.7819 23.65 92.1152 23.05C92.4819 22.45 93.3319 21.7667 94.6652 21C97.4652 19.4 100.749 18.15 104.515 17.25C108.282 16.35 112.132 15.9 116.065 15.9C122.099 15.9 126.599 16.9167 129.565 18.95C132.532 20.9833 134.015 23.6667 134.015 27ZM154.915 47.85C155.348 47.85 155.682 48.05 155.915 48.45C156.182 48.85 156.315 49.4 156.315 50.1C156.315 51.4333 155.998 52.4667 155.365 53.2C154.132 54.7 152.382 56.0833 150.115 57.35C147.882 58.6167 145.482 59.25 142.915 59.25C139.415 59.25 136.698 58.3 134.765 56.4C132.832 54.5 131.865 51.9 131.865 48.6C131.865 46.3 132.348 44.1667 133.315 42.2C134.282 40.2 135.615 38.6167 137.315 37.45C139.048 36.2833 140.998 35.7 143.165 35.7C145.098 35.7 146.648 36.2833 147.815 37.45C148.982 38.5833 149.565 40.1333 149.565 42.1C149.565 44.4 148.732 46.3833 147.065 48.05C145.432 49.6833 142.648 50.9833 138.715 51.95C139.548 53.4833 141.132 54.25 143.465 54.25C144.965 54.25 146.665 53.7333 148.565 52.7C150.498 51.6333 152.165 50.25 153.565 48.55C153.965 48.0833 154.415 47.85 154.915 47.85ZM142.315 40.6C141.082 40.6 140.032 41.3167 139.165 42.75C138.332 44.1833 137.915 45.9167 137.915 47.95V48.05C139.882 47.5833 141.432 46.8833 142.565 45.95C143.698 45.0167 144.265 43.9333 144.265 42.7C144.265 42.0667 144.082 41.5667 143.715 41.2C143.382 40.8 142.915 40.6 142.315 40.6ZM190.194 47.85C190.627 47.85 190.96 48.05 191.194 48.45C191.46 48.85 191.594 49.4 191.594 50.1C191.594 51.4333 191.277 52.4667 190.644 53.2C189.21 54.9667 187.644 56.4167 185.944 57.55C184.244 58.6833 182.294 59.25 180.094 59.25C176.027 59.25 173.194 57.55 171.594 54.15C170.727 55.55 169.577 56.75 168.144 57.75C166.71 58.75 165.177 59.25 163.544 59.25C160.377 59.25 158.044 57.9667 156.544 55.4C155.077 52.8 154.344 49.3 154.344 44.9C154.344 43.2667 154.427 41.45 154.594 39.45H152.544C151.544 39.45 150.86 39.2667 150.494 38.9C150.16 38.5333 149.994 37.95 149.994 37.15C149.994 35.2833 150.744 34.35 152.244 34.35H155.294C155.927 30.8167 156.81 27.6167 157.944 24.75C159.077 21.8833 160.444 19.6 162.044 17.9C163.644 16.2 165.377 15.35 167.244 15.35C168.644 15.35 169.744 15.9667 170.544 17.2C171.344 18.4333 171.744 19.9833 171.744 21.85C171.744 26.55 169.927 30.7167 166.294 34.35H170.844C171.477 30.8167 172.36 27.6167 173.494 24.75C174.627 21.8833 175.994 19.6 177.594 17.9C179.194 16.2 180.927 15.35 182.794 15.35C184.194 15.35 185.294 15.9667 186.094 17.2C186.894 18.4333 187.294 19.9833 187.294 21.85C187.294 26.55 185.477 30.7167 181.844 34.35H186.394C186.927 34.35 187.31 34.4667 187.544 34.7C187.777 34.9333 187.894 35.3667 187.894 36C187.894 38.3 186.01 39.45 182.244 39.45H176.194C176.094 41.05 176.044 42.6833 176.044 44.35C176.044 47.8167 176.444 50.25 177.244 51.65C178.077 53.05 179.377 53.75 181.144 53.75C182.577 53.75 183.844 53.3167 184.944 52.45C186.044 51.5833 187.344 50.2833 188.844 48.55C189.244 48.0833 189.694 47.85 190.194 47.85ZM165.894 20.15C165.394 20.15 164.827 20.7833 164.194 22.05C163.594 23.2833 163.01 25.0167 162.444 27.25C161.91 29.45 161.46 31.9 161.094 34.6C163.06 32.9 164.527 31 165.494 28.9C166.494 26.7667 166.994 24.8333 166.994 23.1C166.994 21.1333 166.627 20.15 165.894 20.15ZM181.444 20.15C180.944 20.15 180.377 20.7833 179.744 22.05C179.144 23.2833 178.56 25.0167 177.994 27.25C177.46 29.45 177.01 31.9 176.644 34.6C178.61 32.9 180.077 31 181.044 28.9C182.044 26.7667 182.544 24.8333 182.544 23.1C182.544 21.1333 182.177 20.15 181.444 20.15ZM164.594 53.75C165.594 53.75 166.594 53.2833 167.594 52.35C168.594 51.4167 169.444 50.2667 170.144 48.9C169.977 47.8667 169.894 46.5333 169.894 44.9C169.894 43.2667 169.977 41.45 170.144 39.45H160.644C160.544 41.05 160.494 42.6833 160.494 44.35C160.494 47.7167 160.844 50.1333 161.544 51.6C162.277 53.0333 163.294 53.75 164.594 53.75ZM209.846 47.85C210.28 47.85 210.613 48.05 210.846 48.45C211.113 48.85 211.246 49.4 211.246 50.1C211.246 51.4333 210.93 52.4667 210.296 53.2C209.063 54.7 207.313 56.0833 205.046 57.35C202.813 58.6167 200.413 59.25 197.846 59.25C194.346 59.25 191.63 58.3 189.696 56.4C187.763 54.5 186.796 51.9 186.796 48.6C186.796 46.3 187.28 44.1667 188.246 42.2C189.213 40.2 190.546 38.6167 192.246 37.45C193.98 36.2833 195.93 35.7 198.096 35.7C200.03 35.7 201.58 36.2833 202.746 37.45C203.913 38.5833 204.496 40.1333 204.496 42.1C204.496 44.4 203.663 46.3833 201.996 48.05C200.363 49.6833 197.58 50.9833 193.646 51.95C194.48 53.4833 196.063 54.25 198.396 54.25C199.896 54.25 201.596 53.7333 203.496 52.7C205.43 51.6333 207.096 50.25 208.496 48.55C208.896 48.0833 209.346 47.85 209.846 47.85ZM197.246 40.6C196.013 40.6 194.963 41.3167 194.096 42.75C193.263 44.1833 192.846 45.9167 192.846 47.95V48.05C194.813 47.5833 196.363 46.8833 197.496 45.95C198.63 45.0167 199.196 43.9333 199.196 42.7C199.196 42.0667 199.013 41.5667 198.646 41.2C198.313 40.8 197.846 40.6 197.246 40.6ZM210.725 59.25C209.459 59.25 208.559 58.5833 208.025 57.25C207.525 55.9167 207.275 53.7833 207.275 50.85C207.275 46.5167 207.892 42.4 209.125 38.5C209.425 37.5333 209.909 36.8333 210.575 36.4C211.275 35.9333 212.242 35.7 213.475 35.7C214.142 35.7 214.609 35.7833 214.875 35.95C215.142 36.1167 215.275 36.4333 215.275 36.9C215.275 37.4333 215.025 38.6333 214.525 40.5C214.192 41.8333 213.925 43 213.725 44C213.525 45 213.359 46.2333 213.225 47.7C214.325 44.8333 215.559 42.5 216.925 40.7C218.292 38.9 219.625 37.6167 220.925 36.85C222.259 36.0833 223.475 35.7 224.575 35.7C226.742 35.7 227.825 36.7833 227.825 38.95C227.825 39.3833 227.675 40.4333 227.375 42.1C227.109 43.4333 226.975 44.2667 226.975 44.6C226.975 45.7667 227.392 46.35 228.225 46.35C229.159 46.35 230.359 45.6167 231.825 44.15C232.259 43.7167 232.709 43.5 233.175 43.5C233.609 43.5 233.942 43.7 234.175 44.1C234.442 44.4667 234.575 44.9667 234.575 45.6C234.575 46.8333 234.242 47.8 233.575 48.5C232.642 49.4667 231.542 50.3 230.275 51C229.042 51.6667 227.725 52 226.325 52C224.559 52 223.209 51.55 222.275 50.65C221.375 49.75 220.925 48.5333 220.925 47C220.925 46.5 220.975 46 221.075 45.5C221.142 44.8333 221.175 44.3833 221.175 44.15C221.175 43.6167 220.992 43.35 220.625 43.35C220.125 43.35 219.459 43.9167 218.625 45.05C217.825 46.15 217.025 47.6167 216.225 49.45C215.425 51.2833 214.775 53.2167 214.275 55.25C213.909 56.8167 213.475 57.8833 212.975 58.45C212.509 58.9833 211.759 59.25 210.725 59.25ZM236.479 32.4C235.079 32.4 234.029 32.0833 233.329 31.45C232.629 30.7833 232.279 29.8667 232.279 28.7C232.279 27.5333 232.729 26.5667 233.629 25.8C234.563 25 235.713 24.6 237.079 24.6C238.313 24.6 239.313 24.9 240.079 25.5C240.846 26.1 241.229 26.95 241.229 28.05C241.229 29.3833 240.796 30.45 239.929 31.25C239.063 32.0167 237.913 32.4 236.479 32.4ZM236.079 59.25C233.913 59.25 232.329 58.4833 231.329 56.95C230.363 55.4167 229.879 53.3833 229.879 50.85C229.879 49.35 230.063 47.4333 230.429 45.1C230.829 42.7333 231.329 40.5333 231.929 38.5C232.229 37.4333 232.629 36.7 233.129 36.3C233.629 35.9 234.429 35.7 235.529 35.7C237.229 35.7 238.079 36.2667 238.079 37.4C238.079 38.2333 237.763 40.1667 237.129 43.2C236.329 46.8667 235.929 49.35 235.929 50.65C235.929 51.65 236.063 52.4167 236.329 52.95C236.596 53.4833 237.046 53.75 237.679 53.75C238.279 53.75 239.029 53.3333 239.929 52.5C240.829 51.6667 242.029 50.35 243.529 48.55C243.929 48.0833 244.379 47.85 244.879 47.85C245.313 47.85 245.646 48.05 245.879 48.45C246.146 48.85 246.279 49.4 246.279 50.1C246.279 51.4333 245.963 52.4667 245.329 53.2C242.029 57.2333 238.946 59.25 236.079 59.25ZM261.696 45C262.629 45 263.096 45.7 263.096 47.1C263.096 49.7333 261.029 51.05 256.896 51.05C256.096 51.05 254.946 50.9 253.446 50.6C253.879 52.6667 254.229 54.9667 254.496 57.5C254.796 60 254.946 62.0667 254.946 63.7C254.946 67.3 254.362 70.05 253.196 71.95C252.029 73.85 250.496 74.8 248.596 74.8C246.196 74.8 244.479 73.1 243.446 69.7C242.446 66.3 241.946 61.1667 241.946 54.3C241.946 47.9 242.629 41.4167 243.996 34.85C245.396 28.25 247.296 22.8 249.696 18.5C252.129 14.1667 254.796 12 257.696 12C259.262 12 260.479 12.7 261.346 14.1C262.246 15.5 262.696 17.3833 262.696 19.75C262.696 27.5833 258.012 36.1167 248.646 45.35C248.312 48.6167 248.146 51.4833 248.146 53.95C248.146 57.3833 248.262 60.9 248.496 64.5C248.729 68.1333 249.112 69.95 249.646 69.95C250.646 69.95 251.146 68.2167 251.146 64.75C251.146 62.15 250.962 59.6333 250.596 57.2C250.262 54.7667 249.796 52.2 249.196 49.5C249.162 49.0667 249.296 48.5167 249.596 47.85C249.929 47.1833 250.329 46.6 250.796 46.1C251.262 45.6 251.679 45.35 252.046 45.35C252.712 45.35 253.512 45.3833 254.446 45.45C254.746 45.4833 255.096 45.5 255.496 45.5C256.829 45.5 258.312 45.3833 259.946 45.15C260.212 45.1167 260.496 45.0833 260.796 45.05C261.096 45.0167 261.396 45 261.696 45ZM256.646 16.95C256.046 16.95 255.296 17.9667 254.396 20C253.529 22.0333 252.662 24.7333 251.796 28.1C250.929 31.4333 250.179 34.9667 249.546 38.7C252.212 35.6667 254.262 32.5167 255.696 29.25C257.129 25.95 257.862 22.8667 257.896 20C257.896 17.9667 257.479 16.95 256.646 16.95ZM276.824 35.7C277.59 35.7 278.124 35.8 278.424 36C278.724 36.2 278.874 36.5333 278.874 37C278.874 37.8 278.44 40.65 277.574 45.55C276.807 50.25 276.357 53.0333 276.224 53.9C274.99 62.4667 273.29 69.25 271.124 74.25C268.957 79.25 266.074 81.75 262.474 81.75C260.774 81.75 259.39 81.2167 258.324 80.15C257.257 79.1167 256.724 77.75 256.724 76.05C256.724 74.4833 257.074 72.8833 257.774 71.25C258.507 69.6167 259.84 67.7333 261.774 65.6C263.74 63.5 266.507 61.0833 270.074 58.35L270.224 57.2C270.457 55.9667 270.724 54.2 271.024 51.9C270.357 54.3 269.424 56.1333 268.224 57.4C267.024 58.6333 265.757 59.25 264.424 59.25C262.924 59.25 261.69 58.5667 260.724 57.2C259.79 55.8 259.324 54.0667 259.324 52C259.324 49.5 259.49 47.2167 259.824 45.15C260.157 43.05 260.707 40.8333 261.474 38.5C261.807 37.5 262.274 36.7833 262.874 36.35C263.474 35.9167 264.424 35.7 265.724 35.7C266.457 35.7 266.957 35.8167 267.224 36.05C267.524 36.2833 267.674 36.6333 267.674 37.1C267.674 37.3667 267.49 38.2667 267.124 39.8C266.79 41.0333 266.524 42.15 266.324 43.15C266.057 44.5167 265.824 45.8333 265.624 47.1C265.424 48.3333 265.324 49.35 265.324 50.15C265.324 51.4167 265.674 52.05 266.374 52.05C266.874 52.05 267.49 51.55 268.224 50.55C268.99 49.55 269.79 48.0333 270.624 46C271.49 43.9667 272.324 41.4667 273.124 38.5C273.39 37.5 273.79 36.7833 274.324 36.35C274.89 35.9167 275.724 35.7 276.824 35.7ZM263.024 76.9C263.857 76.9 264.79 75.9333 265.824 74C266.857 72.0667 267.89 68.85 268.924 64.35C266.357 66.5167 264.49 68.4833 263.324 70.25C262.19 72.05 261.624 73.6167 261.624 74.95C261.624 75.5167 261.724 75.9833 261.924 76.35C262.157 76.7167 262.524 76.9 263.024 76.9Z" fill="black"/>
<path d="M64.7655 25.6C64.7655 29 63.5655 31.94 61.1655 34.42C58.7655 36.86 55.2655 38.62 50.6655 39.7C53.1455 40.38 55.0256 41.5 56.3056 43.06C57.5856 44.58 58.2256 46.34 58.2256 48.34C58.2256 51.5 57.2256 54.24 55.2255 56.56C53.2655 58.88 50.3855 60.68 46.5855 61.96C42.7855 63.2 38.2055 63.82 32.8455 63.82C30.8455 63.82 29.2455 63.76 28.0455 63.64C28.0055 64.76 27.5255 65.6 26.6055 66.16C25.6855 66.72 24.5055 67 23.0655 67C21.6255 67 20.6255 66.68 20.0655 66.04C19.5455 65.4 19.3255 64.46 19.4055 63.22C19.7655 57.62 20.4655 51.76 21.5055 45.64C22.5455 39.48 23.8655 33.54 25.4655 27.82C25.7455 26.82 26.3055 26.12 27.1455 25.72C27.9855 25.32 29.0855 25.12 30.4455 25.12C32.8855 25.12 34.1055 25.8 34.1055 27.16C34.1055 27.72 33.9855 28.36 33.7455 29.08C32.7055 32.2 31.6655 36.44 30.6255 41.8C29.5855 47.12 28.8455 52.2 28.4055 57.04C30.3255 57.2 31.8855 57.28 33.0855 57.28C38.6855 57.28 42.7855 56.48 45.3855 54.88C48.0255 53.24 49.3455 51.16 49.3455 48.64C49.3455 46.88 48.5855 45.4 47.0655 44.2C45.5855 43 43.0855 42.34 39.5655 42.22C38.7655 42.18 38.2055 41.98 37.8855 41.62C37.5655 41.26 37.4055 40.68 37.4055 39.88C37.4055 38.72 37.6455 37.78 38.1255 37.06C38.6055 36.34 39.4855 35.96 40.7655 35.92C43.6055 35.84 46.1655 35.42 48.4455 34.66C50.7655 33.9 52.5855 32.84 53.9055 31.48C55.2255 30.08 55.8855 28.46 55.8855 26.62C55.8855 24.3 54.7455 22.48 52.4655 21.16C50.1855 19.8 46.6855 19.12 41.9655 19.12C37.6855 19.12 33.5455 19.68 29.5455 20.8C25.5455 21.88 22.1455 23.26 19.3455 24.94C18.0655 25.7 16.9855 26.08 16.1055 26.08C15.3855 26.08 14.8255 25.84 14.4255 25.36C14.0655 24.84 13.8855 24.2 13.8855 23.44C13.8855 22.44 14.0855 21.58 14.4855 20.86C14.9255 20.14 15.9455 19.32 17.5455 18.4C20.9055 16.48 24.8455 14.98 29.3655 13.9C33.8855 12.82 38.5055 12.28 43.2255 12.28C50.4655 12.28 55.8656 13.5 59.4255 15.94C62.9855 18.38 64.7655 21.6 64.7655 25.6Z" fill="white"/>
<circle cx="237" cy="28" r="6" fill="#FE6019"/>
<defs>
<linearGradient id="paint0_linear_0_1" x1="37.5" y1="0" x2="94" y2="75" gradientUnits="userSpaceOnUse">
<stop offset="0.9998" stop-color="#FE6019"/>
<stop offset="0.9999" stop-color="#FE6019"/>
<stop offset="1" stop-color="#FF8A00" stop-opacity="0"/>
</linearGradient>
</defs>
</svg>
