<svg width="312" height="75" viewBox="0 0 312 75" fill="none" xmlns="http://www.w3.org/2000/svg">
<rect width="75" height="75" rx="20" fill="url(#paint0_linear_0_1)" style="mix-blend-mode:darken"/>
<path d="M100.756 39.9863H89.8574L89.7988 34.3027H99.1445C100.746 34.3027 102.084 34.0781 103.158 33.6289C104.232 33.1797 105.043 32.5254 105.59 31.666C106.156 30.8066 106.439 29.7617 106.439 28.5312C106.439 27.1641 106.176 26.0508 105.648 25.1914C105.141 24.332 104.34 23.707 103.246 23.3164C102.152 22.9062 100.766 22.7012 99.0859 22.7012H92.4648V59H84.4082V16.3438H99.0859C101.508 16.3438 103.666 16.5781 105.561 17.0469C107.475 17.4961 109.096 18.1992 110.424 19.1562C111.752 20.1133 112.758 21.3145 113.441 22.7598C114.145 24.2051 114.496 25.9238 114.496 27.916C114.496 29.6738 114.086 31.2949 113.266 32.7793C112.465 34.2441 111.225 35.4355 109.545 36.3535C107.885 37.2715 105.775 37.7988 103.217 37.9355L100.756 39.9863ZM100.404 59H87.4844L90.8535 52.6719H100.404C102.006 52.6719 103.324 52.4082 104.359 51.8809C105.414 51.3535 106.195 50.6309 106.703 49.7129C107.23 48.7754 107.494 47.7012 107.494 46.4902C107.494 45.1621 107.26 44.0098 106.791 43.0332C106.342 42.0566 105.619 41.3047 104.623 40.7773C103.646 40.25 102.357 39.9863 100.756 39.9863H92.377L92.4355 34.3027H103.1L104.945 36.5C107.406 36.5195 109.408 37.0078 110.951 37.9648C112.514 38.9219 113.666 40.1523 114.408 41.6562C115.15 43.1602 115.521 44.7812 115.521 46.5195C115.521 49.2539 114.926 51.5488 113.734 53.4043C112.562 55.2598 110.844 56.6562 108.578 57.5938C106.332 58.5312 103.607 59 100.404 59ZM136.146 59.5859C133.744 59.5859 131.586 59.1953 129.672 58.4141C127.758 57.6328 126.127 56.5488 124.779 55.1621C123.451 53.7559 122.426 52.125 121.703 50.2695C121 48.3945 120.648 46.3828 120.648 44.2344V43.0625C120.648 40.6211 121 38.4043 121.703 36.4121C122.406 34.4004 123.402 32.6719 124.691 31.2266C125.98 29.7812 127.523 28.668 129.32 27.8867C131.117 27.1055 133.1 26.7148 135.268 26.7148C137.514 26.7148 139.496 27.0957 141.215 27.8574C142.934 28.5996 144.369 29.6543 145.521 31.0215C146.674 32.3887 147.543 34.0293 148.129 35.9434C148.715 37.8379 149.008 39.9375 149.008 42.2422V45.4941H124.164V40.1621H141.391V39.5762C141.352 38.3457 141.117 37.2227 140.688 36.207C140.258 35.1719 139.594 34.3516 138.695 33.7461C137.797 33.1211 136.635 32.8086 135.209 32.8086C134.057 32.8086 133.051 33.0625 132.191 33.5703C131.352 34.0586 130.648 34.7617 130.082 35.6797C129.535 36.5781 129.125 37.6523 128.852 38.9023C128.578 40.1523 128.441 41.5391 128.441 43.0625V44.2344C128.441 45.5625 128.617 46.793 128.969 47.9258C129.34 49.0586 129.877 50.0449 130.58 50.8848C131.303 51.7051 132.162 52.3496 133.158 52.8184C134.174 53.2676 135.326 53.4922 136.615 53.4922C138.236 53.4922 139.701 53.1797 141.01 52.5547C142.338 51.9102 143.49 50.9629 144.467 49.7129L148.363 53.7559C147.699 54.7324 146.801 55.6699 145.668 56.5684C144.555 57.4668 143.207 58.1992 141.625 58.7656C140.043 59.3125 138.217 59.5859 136.146 59.5859ZM169.193 27.3008V32.8672H151.029V27.3008H169.193ZM155.893 19.5078H163.656V49.8594C163.656 50.7969 163.783 51.5195 164.037 52.0273C164.291 52.5352 164.672 52.877 165.18 53.0527C165.688 53.2285 166.293 53.3164 166.996 53.3164C167.504 53.3164 167.973 53.2871 168.402 53.2285C168.832 53.1699 169.193 53.1113 169.486 53.0527L169.516 58.8535C168.871 59.0684 168.139 59.2441 167.318 59.3809C166.518 59.5176 165.609 59.5859 164.594 59.5859C162.855 59.5859 161.332 59.293 160.023 58.707C158.715 58.1016 157.699 57.1348 156.977 55.8066C156.254 54.459 155.893 52.6816 155.893 50.4746V19.5078ZM189.35 27.3008V32.8672H171.186V27.3008H189.35ZM176.049 19.5078H183.812V49.8594C183.812 50.7969 183.939 51.5195 184.193 52.0273C184.447 52.5352 184.828 52.877 185.336 53.0527C185.844 53.2285 186.449 53.3164 187.152 53.3164C187.66 53.3164 188.129 53.2871 188.559 53.2285C188.988 53.1699 189.35 53.1113 189.643 53.0527L189.672 58.8535C189.027 59.0684 188.295 59.2441 187.475 59.3809C186.674 59.5176 185.766 59.5859 184.75 59.5859C183.012 59.5859 181.488 59.293 180.18 58.707C178.871 58.1016 177.855 57.1348 177.133 55.8066C176.41 54.459 176.049 52.6816 176.049 50.4746V19.5078ZM208.744 59.5859C206.342 59.5859 204.184 59.1953 202.27 58.4141C200.355 57.6328 198.725 56.5488 197.377 55.1621C196.049 53.7559 195.023 52.125 194.301 50.2695C193.598 48.3945 193.246 46.3828 193.246 44.2344V43.0625C193.246 40.6211 193.598 38.4043 194.301 36.4121C195.004 34.4004 196 32.6719 197.289 31.2266C198.578 29.7812 200.121 28.668 201.918 27.8867C203.715 27.1055 205.697 26.7148 207.865 26.7148C210.111 26.7148 212.094 27.0957 213.812 27.8574C215.531 28.5996 216.967 29.6543 218.119 31.0215C219.271 32.3887 220.141 34.0293 220.727 35.9434C221.312 37.8379 221.605 39.9375 221.605 42.2422V45.4941H196.762V40.1621H213.988V39.5762C213.949 38.3457 213.715 37.2227 213.285 36.207C212.855 35.1719 212.191 34.3516 211.293 33.7461C210.395 33.1211 209.232 32.8086 207.807 32.8086C206.654 32.8086 205.648 33.0625 204.789 33.5703C203.949 34.0586 203.246 34.7617 202.68 35.6797C202.133 36.5781 201.723 37.6523 201.449 38.9023C201.176 40.1523 201.039 41.5391 201.039 43.0625V44.2344C201.039 45.5625 201.215 46.793 201.566 47.9258C201.938 49.0586 202.475 50.0449 203.178 50.8848C203.9 51.7051 204.76 52.3496 205.756 52.8184C206.771 53.2676 207.924 53.4922 209.213 53.4922C210.834 53.4922 212.299 53.1797 213.607 52.5547C214.936 51.9102 216.088 50.9629 217.064 49.7129L220.961 53.7559C220.297 54.7324 219.398 55.6699 218.266 56.5684C217.152 57.4668 215.805 58.1992 214.223 58.7656C212.641 59.3125 210.814 59.5859 208.744 59.5859ZM234.525 33.7754V59H226.791V27.3008H234.115L234.525 33.7754ZM244.164 27.0957L244.047 34.3027C243.617 34.2246 243.129 34.166 242.582 34.127C242.055 34.0879 241.557 34.0684 241.088 34.0684C239.896 34.0684 238.852 34.2344 237.953 34.5664C237.055 34.8789 236.303 35.3379 235.697 35.9434C235.111 36.5488 234.662 37.291 234.35 38.1699C234.037 39.0293 233.861 40.0059 233.822 41.0996L232.152 40.8945C232.152 38.8828 232.357 37.0176 232.768 35.2988C233.178 33.5801 233.773 32.0762 234.555 30.7871C235.336 29.498 236.312 28.502 237.484 27.7988C238.676 27.0762 240.043 26.7148 241.586 26.7148C242.016 26.7148 242.475 26.7539 242.963 26.832C243.471 26.8906 243.871 26.9785 244.164 27.0957ZM256.615 27.3008V59H248.852V27.3008H256.615ZM248.324 19.0098C248.324 17.8574 248.715 16.9004 249.496 16.1387C250.297 15.377 251.371 14.9961 252.719 14.9961C254.066 14.9961 255.131 15.377 255.912 16.1387C256.713 16.9004 257.113 17.8574 257.113 19.0098C257.113 20.1426 256.713 21.0898 255.912 21.8516C255.131 22.6133 254.066 22.9941 252.719 22.9941C251.371 22.9941 250.297 22.6133 249.496 21.8516C248.715 21.0898 248.324 20.1426 248.324 19.0098ZM274.135 59H266.342V24.3711C266.342 21.9883 266.801 19.9863 267.719 18.3652C268.637 16.7246 269.945 15.4844 271.645 14.6445C273.344 13.8047 275.346 13.3848 277.65 13.3848C278.412 13.3848 279.135 13.4336 279.818 13.5312C280.521 13.6289 281.215 13.7656 281.898 13.9414L281.752 19.8301C281.381 19.7324 280.971 19.6641 280.521 19.625C280.092 19.5859 279.613 19.5664 279.086 19.5664C278.031 19.5664 277.133 19.752 276.391 20.123C275.648 20.4941 275.082 21.041 274.691 21.7637C274.32 22.4668 274.135 23.3359 274.135 24.3711V59ZM280.551 27.3008V32.8672H261.566V27.3008H280.551ZM294.613 55.4844L303.109 27.3008H311.4L298.686 63.8047C298.393 64.5859 298.012 65.4355 297.543 66.3535C297.094 67.2715 296.488 68.1406 295.727 68.9609C294.965 69.8008 294.008 70.4844 292.855 71.0117C291.723 71.5391 290.346 71.8027 288.725 71.8027C288.021 71.8027 287.396 71.7539 286.85 71.6562C286.303 71.5586 285.727 71.4316 285.121 71.2754V65.4746C285.316 65.4941 285.541 65.5039 285.795 65.5039C286.068 65.5234 286.303 65.5332 286.498 65.5332C287.631 65.5332 288.568 65.3965 289.311 65.123C290.053 64.8691 290.648 64.4492 291.098 63.8633C291.566 63.2969 291.957 62.5547 292.27 61.6367L294.613 55.4844ZM290.424 27.3008L297.602 50.6504L298.861 58.8242L293.529 59.791L282.074 27.3008H290.424Z" fill="black"/>
<path d="M38.9917 40.4019H27.1851L27.1216 34.2446H37.2461C38.9811 34.2446 40.4305 34.0013 41.5942 33.5146C42.758 33.028 43.6361 32.3192 44.2285 31.3882C44.8421 30.4572 45.1489 29.3252 45.1489 27.9922C45.1489 26.5111 44.8633 25.305 44.292 24.374C43.7419 23.443 42.8743 22.766 41.6895 22.3428C40.5046 21.8984 39.0023 21.6763 37.1826 21.6763H30.0098V61H21.2817V14.7891H37.1826C39.8063 14.7891 42.1444 15.043 44.1968 15.5508C46.2703 16.0374 48.0265 16.7992 49.4653 17.8359C50.9041 18.8727 51.9938 20.174 52.7344 21.7397C53.4961 23.3055 53.877 25.1675 53.877 27.3257C53.877 29.23 53.4326 30.9862 52.5439 32.5942C51.6764 34.1812 50.3328 35.4718 48.5132 36.4663C46.7147 37.4608 44.4295 38.0321 41.6577 38.1802L38.9917 40.4019ZM38.6108 61H24.6143L28.2642 54.1445H38.6108C40.3459 54.1445 41.7741 53.8589 42.8955 53.2876C44.0381 52.7163 44.8844 51.9334 45.4346 50.939C46.0059 49.9233 46.2915 48.7596 46.2915 47.4478C46.2915 46.009 46.0376 44.7606 45.5298 43.7026C45.0431 42.6447 44.2603 41.8301 43.1812 41.2588C42.1232 40.6875 40.7267 40.4019 38.9917 40.4019H29.9146L29.978 34.2446H41.5308L43.5303 36.625C46.1963 36.6462 48.3651 37.1751 50.0366 38.2119C51.7293 39.2487 52.9777 40.5817 53.7817 42.2109C54.5858 43.8402 54.9878 45.5964 54.9878 47.4795C54.9878 50.4417 54.3424 52.9279 53.0518 54.938C51.7822 56.9481 49.9202 58.4609 47.4658 59.4766C45.0326 60.4922 42.0809 61 38.6108 61Z" fill="white"/>
<circle cx="253" cy="18" r="6" fill="#FE6019"/>
<line x1="84.9921" y1="70.5" x2="279.989" y2="69.4737" stroke="#FE6019" stroke-width="3"/>
<defs>
<linearGradient id="paint0_linear_0_1" x1="37.5" y1="0" x2="94" y2="75" gradientUnits="userSpaceOnUse">
<stop offset="0.9998" stop-color="#FE6019"/>
<stop offset="0.9999" stop-color="#FE6019"/>
<stop offset="1" stop-color="#FF8A00" stop-opacity="0"/>
</linearGradient>
</defs>
</svg>
