<svg width="60" height="60" viewBox="0 0 60 60" fill="none" xmlns="http://www.w3.org/2000/svg">
<circle cx="30" cy="30" r="30" fill="#FE6019"/>
<path d="M52.7213 19C52.7213 21.8333 51.7213 24.2833 49.7213 26.35C47.7213 28.3833 44.8046 29.85 40.9713 30.75C43.038 31.3167 44.6046 32.25 45.6713 33.55C46.738 34.8167 47.2713 36.2833 47.2713 37.95C47.2713 40.5833 46.438 42.8667 44.7713 44.8C43.138 46.7333 40.738 48.2333 37.5713 49.3C34.4046 50.3333 30.588 50.85 26.1213 50.85C24.4546 50.85 23.1213 50.8 22.1213 50.7C22.088 51.6333 21.688 52.3333 20.9213 52.8C20.1546 53.2667 19.1713 53.5 17.9713 53.5C16.7713 53.5 15.938 53.2333 15.4713 52.7C15.038 52.1667 14.8546 51.3833 14.9213 50.35C15.2213 45.6833 15.8046 40.8 16.6713 35.7C17.538 30.5667 18.638 25.6167 19.9713 20.85C20.2046 20.0167 20.6713 19.4333 21.3713 19.1C22.0713 18.7667 22.988 18.6 24.1213 18.6C26.1546 18.6 27.1713 19.1667 27.1713 20.3C27.1713 20.7667 27.0713 21.3 26.8713 21.9C26.0046 24.5 25.138 28.0333 24.2713 32.5C23.4046 36.9333 22.788 41.1667 22.4213 45.2C24.0213 45.3333 25.3213 45.4 26.3213 45.4C30.988 45.4 34.4046 44.7333 36.5713 43.4C38.7713 42.0333 39.8713 40.3 39.8713 38.2C39.8713 36.7333 39.238 35.5 37.9713 34.5C36.738 33.5 34.6546 32.95 31.7213 32.85C31.0546 32.8167 30.588 32.65 30.3213 32.35C30.0546 32.05 29.9213 31.5667 29.9213 30.9C29.9213 29.9333 30.1213 29.15 30.5213 28.55C30.9213 27.95 31.6546 27.6333 32.7213 27.6C35.088 27.5333 37.2213 27.1833 39.1213 26.55C41.0546 25.9167 42.5713 25.0333 43.6713 23.9C44.7713 22.7333 45.3213 21.3833 45.3213 19.85C45.3213 17.9167 44.3713 16.4 42.4713 15.3C40.5713 14.1667 37.6546 13.6 33.7213 13.6C30.1546 13.6 26.7046 14.0667 23.3713 15C20.038 15.9 17.2046 17.05 14.8713 18.45C13.8046 19.0833 12.9046 19.4 12.1713 19.4C11.5713 19.4 11.1046 19.2 10.7713 18.8C10.4713 18.3667 10.3213 17.8333 10.3213 17.2C10.3213 16.3667 10.488 15.65 10.8213 15.05C11.188 14.45 12.038 13.7667 13.3713 13C16.1713 11.4 19.4546 10.15 23.2213 9.25C26.988 8.35 30.838 7.9 34.7713 7.9C40.8046 7.9 45.3046 8.91666 48.2713 10.95C51.238 12.9833 52.7213 15.6667 52.7213 19Z" fill="white"/>
</svg>
