<svg width="90" height="90" viewBox="0 0 90 90" fill="none" xmlns="http://www.w3.org/2000/svg">
<circle cx="45" cy="45" r="45" fill="#FE6019"/>
<path d="M76.8098 30.2C76.8098 34.1667 75.4098 37.5967 72.6098 40.49C69.8098 43.3367 65.7265 45.39 60.3598 46.65C63.2531 47.4433 65.4465 48.75 66.9398 50.57C68.4331 52.3433 69.1798 54.3967 69.1798 56.73C69.1798 60.4167 68.0131 63.6133 65.6798 66.32C63.3931 69.0267 60.0331 71.1267 55.5998 72.62C51.1665 74.0667 45.8231 74.79 39.5698 74.79C37.2365 74.79 35.3698 74.72 33.9698 74.58C33.9231 75.8867 33.3631 76.8667 32.2898 77.52C31.2165 78.1733 29.8398 78.5 28.1598 78.5C26.4798 78.5 25.3131 78.1267 24.6598 77.38C24.0531 76.6333 23.7965 75.5367 23.8898 74.09C24.3098 67.5567 25.1265 60.72 26.3398 53.58C27.5531 46.3933 29.0931 39.4633 30.9598 32.79C31.2865 31.6233 31.9398 30.8067 32.9198 30.34C33.8998 29.8733 35.1831 29.64 36.7698 29.64C39.6165 29.64 41.0398 30.4333 41.0398 32.02C41.0398 32.6733 40.8998 33.42 40.6198 34.26C39.4065 37.9 38.1931 42.8467 36.9798 49.1C35.7665 55.3067 34.9031 61.2333 34.3898 66.88C36.6298 67.0667 38.4498 67.16 39.8498 67.16C46.3831 67.16 51.1665 66.2267 54.1998 64.36C57.2798 62.4467 58.8198 60.02 58.8198 57.08C58.8198 55.0267 57.9331 53.3 56.1598 51.9C54.4331 50.5 51.5165 49.73 47.4098 49.59C46.4765 49.5433 45.8231 49.31 45.4498 48.89C45.0765 48.47 44.8898 47.7933 44.8898 46.86C44.8898 45.5067 45.1698 44.41 45.7298 43.57C46.2898 42.73 47.3165 42.2867 48.8098 42.24C52.1231 42.1467 55.1098 41.6567 57.7698 40.77C60.4765 39.8833 62.5998 38.6467 64.1398 37.06C65.6798 35.4267 66.4498 33.5367 66.4498 31.39C66.4498 28.6833 65.1198 26.56 62.4598 25.02C59.7998 23.4333 55.7165 22.64 50.2098 22.64C45.2165 22.64 40.3865 23.2933 35.7198 24.6C31.0531 25.86 27.0865 27.47 23.8198 29.43C22.3265 30.3167 21.0665 30.76 20.0398 30.76C19.1998 30.76 18.5465 30.48 18.0798 29.92C17.6598 29.3133 17.4498 28.5667 17.4498 27.68C17.4498 26.5133 17.6831 25.51 18.1498 24.67C18.6631 23.83 19.8531 22.8733 21.7198 21.8C25.6398 19.56 30.2365 17.81 35.5098 16.55C40.7831 15.29 46.1731 14.66 51.6798 14.66C60.1265 14.66 66.4265 16.0833 70.5798 18.93C74.7331 21.7767 76.8098 25.5333 76.8098 30.2Z" fill="white"/>
</svg>
