<svg version="1.1" viewBox="0.0 0.0 100.0 100.0" fill="none" stroke="none" stroke-linecap="square" stroke-miterlimit="10" xmlns:xlink="http://www.w3.org/1999/xlink" xmlns="http://www.w3.org/2000/svg"><clipPath id="p.0"><path d="m0 0l100.0 0l0 100.0l-100.0 0l0 -100.0z" clip-rule="nonzero"/></clipPath><g clip-path="url(#p.0)"><path fill="#000000" fill-opacity="0.0" d="m0 0l100.0 0l0 100.0l-100.0 0z" fill-rule="evenodd"/><path fill="#fe6019" d="m1.3295838 50.00675l0 0c0 -26.83147 21.751205 -48.582676 48.58268 -48.582676l0.18897629 0l0 0c12.884926 0 25.242123 5.1185174 34.353138 14.229536c9.111023 9.111019 14.229538 21.468214 14.229538 34.35314l0 0l0 0c0 26.83147 -21.751205 48.582676 -48.582676 48.582676l-0.18897629 0l0 0c-26.831472 0 -48.58268 -21.751205 -48.58268 -48.582676z" fill-rule="evenodd"/><path fill="#ffffff" d="m80.30373 31.350496q0 5.656252 -4.0 9.765627q-4.0 4.09375 -11.671875 5.890625q4.140625 1.140625 6.265625 3.703125q2.140625 2.5625 2.140625 5.90625q0 5.265625 -3.296875 9.124996q-3.296875 3.859375 -9.640629 5.96875q-6.328125 2.09375 -15.265625 2.09375q-3.328125 0 -5.328125 -0.203125q-0.0625 1.875 -1.59375 2.796875q-1.53125 0.9375 -3.9375 0.9375q-2.40625 0 -3.3125 -1.0625q-0.890625 -1.0625 -0.75 -3.125q0.59375 -9.343746 2.328125 -19.562496q1.734375 -10.234375 4.40625 -19.765625q0.46875 -1.671875 1.859375 -2.328127q1.40625 -0.671875 3.671875 -0.671875q4.0625 0 4.0625 2.265627q0 0.921875 -0.40625 2.125q-1.734375 5.203125 -3.46875 14.109375q-1.71875 8.890625 -2.453125 16.953121q3.1875 0.265625 5.1875 0.265625q9.34375 0 13.703125 -2.6874962q4.375 -2.703125 4.375 -6.90625q0 -2.9375 -2.5 -4.9375q-2.5 -2.0 -8.375 -2.203125q-1.328125 -0.0625 -1.859375 -0.65625q-0.53125 -0.609375 -0.53125 -1.9375q0 -1.9375 0.796875 -3.125q0.796875 -1.203125 2.921875 -1.265625q4.734375 -0.140625 8.5625 -1.40625q3.8437538 -1.265625 6.046879 -3.5625q2.203125 -2.296875 2.203125 -5.375q0 -3.859377 -3.8125 -6.093752q-3.7968788 -2.234375 -11.656254 -2.234375q-7.140625 0 -13.8125 1.84375q-6.65625 1.828125 -11.3125 4.625q-2.140625 1.265625 -3.609375 1.265625q-1.203125 0 -1.84375 -0.828125q-0.625 -0.84375 -0.625 -2.109375q0 -1.65625 0.703125 -2.859375q0.703125 -1.203125 3.375 -2.734375q5.59375 -3.203125 13.125 -5.0q7.53125 -1.796875 15.390625 -1.796875q12.078129 0 18.000004 4.0625q5.9375 4.0625 5.9375 10.734375z" fill-rule="nonzero"/></g></svg>